<?xml version="1.0" encoding="UTF-8" standalone="no"?>
<svg width="34px" height="43px" viewBox="0 0 34 43" version="1.1" xmlns="http://www.w3.org/2000/svg" xmlns:xlink="http://www.w3.org/1999/xlink" xmlns:sketch="http://www.bohemiancoding.com/sketch/ns">
    <!-- Generator: Sketch 3.4.4 (17249) - http://www.bohemiancoding.com/sketch -->
    <title>Group</title>
    <desc>Created with Sketch.</desc>
    <defs></defs>
    <g id="Page-1" stroke="none" stroke-width="1.25" fill="none" fill-rule="evenodd" sketch:type="MSPage">
        <g id="Artboard-1" sketch:type="MSArtboardGroup" transform="translate(-2664.000000, -1480.000000)" stroke-linecap="round" stroke="#DD579B" stroke-linejoin="round">
            <g id="Group" sketch:type="MSLayerGroup" transform="translate(2664.000000, 1480.000000)">
                <path d="M25.9473684,22.3958333 L27.7368421,22.3958333 C30.7002105,22.3958333 33.1052632,24.8038333 33.1052632,27.7708333 C33.1052632,30.7378333 30.7002105,33.1458333 27.7368421,33.1458333 L25.9473684,33.1458333" id="Stroke-254" sketch:type="MSShapeGroup"></path>
                <path d="M25.9473684,38.5208333 C25.9473684,40.4970417 24.344,42.1041667 22.3684211,42.1041667 L6.26315789,42.1041667 C4.28757895,42.1041667 2.68421053,40.4970417 2.68421053,38.5208333 L2.68421053,18.8125 L25.9473684,18.8125 L25.9473684,38.5208333 L25.9473684,38.5208333 Z" id="Stroke-255" sketch:type="MSShapeGroup"></path>
                <path d="M25.7342421,1.0105 C27.5827684,3.83058333 24.8466632,5.375 24.2078211,6.89075 C23.5349789,8.4925 24.1899263,10.02975 25.7915053,10.7052083 C30.9827684,12.894625 32.5270842,2.65525 25.7342421,1.0105 L25.7342421,1.0105 Z" id="Stroke-256" sketch:type="MSShapeGroup"></path>
                <path d="M20.5789474,18.8125 L25.2476842,10.4149583" id="Stroke-257" sketch:type="MSShapeGroup"></path>
                <path d="M27.0937053,11.0298583 L24.1571789,18.8128583" id="Stroke-258" sketch:type="MSShapeGroup"></path>
                <path d="M9.84210526,18.8125 L4.47368421,18.8125 L1.78947368,13.4375 L0.894736842,8.0625 L5.36842105,10.75 L9.84210526,18.8125 L9.84210526,18.8125 Z" id="Stroke-259" sketch:type="MSShapeGroup"></path>
                <path d="M1.78947368,13.4375 L5.36842105,10.75" id="Stroke-260" sketch:type="MSShapeGroup"></path>
                <path d="M18.7894737,0.895833333 L11.6315789,0.895833333 L11.6315789,18.8125 L18.7894737,18.8125 L18.7894737,0.895833333 Z" id="Stroke-261" sketch:type="MSShapeGroup"></path>
                <path d="M18.7894737,4.47916667 L15.2105263,4.47916667" id="Stroke-262" sketch:type="MSShapeGroup"></path>
                <path d="M18.7894737,8.0625 L17,8.0625" id="Stroke-263" sketch:type="MSShapeGroup"></path>
                <path d="M18.7894737,11.6458333 L15.2105263,11.6458333" id="Stroke-264" sketch:type="MSShapeGroup"></path>
                <path d="M18.7894737,15.2291667 L17,15.2291667" id="Stroke-265" sketch:type="MSShapeGroup"></path>
            </g>
        </g>
    </g>
</svg>
