<?xml version="1.0" encoding="UTF-8" standalone="no"?>
<svg width="44px" height="44px" viewBox="0 0 44 44" version="1.1" xmlns="http://www.w3.org/2000/svg" xmlns:xlink="http://www.w3.org/1999/xlink" xmlns:sketch="http://www.bohemiancoding.com/sketch/ns">
    <!-- Generator: Sketch 3.4.4 (17249) - http://www.bohemiancoding.com/sketch -->
    <title>Group</title>
    <desc>Created with Sketch.</desc>
    <defs></defs>
    <g id="Page-1" stroke="none" stroke-width="1.5" fill="none" fill-rule="evenodd" sketch:type="MSPage">
        <g id="Artboard-1" sketch:type="MSArtboardGroup" transform="translate(-2865.000000, -1479.000000)" stroke-linecap="round" stroke="#4A4A4A" stroke-linejoin="round">
            <g id="Group" sketch:type="MSLayerGroup" transform="translate(2865.000000, 1479.000000)">
                <path d="M43.0833333,22 C43.0833333,33.6435 33.6453333,43.0833333 22,43.0833333 C10.3546667,43.0833333 0.916666667,33.6435 0.916666667,22 C0.916666667,10.3546667 10.3546667,0.916666667 22,0.916666667 C33.6453333,0.916666667 43.0833333,10.3546667 43.0833333,22 L43.0833333,22 Z" id="Stroke-380" sketch:type="MSShapeGroup"></path>
                <path d="M35.75,23.8333333 C35.75,31.4288333 29.5955,37.5833333 22,37.5833333 C14.4045,37.5833333 8.25,31.4288333 8.25,23.8333333" id="Stroke-381" sketch:type="MSShapeGroup"></path>
                <path d="M10.0833333,18.3333333 C10.0833333,16.3075 11.7241667,14.6666667 13.75,14.6666667 C15.7758333,14.6666667 17.4166667,16.3075 17.4166667,18.3333333" id="Stroke-382" sketch:type="MSShapeGroup"></path>
                <path d="M33.9166667,18.3333333 C33.9166667,16.3075 32.2758333,14.6666667 30.25,14.6666667 C28.2241667,14.6666667 26.5833333,16.3075 26.5833333,18.3333333" id="Stroke-383" sketch:type="MSShapeGroup"></path>
            </g>
        </g>
    </g>
</svg>
