<?xml version="1.0" encoding="UTF-8" standalone="no"?>
<svg width="341px" height="317px" viewBox="0 0 341 317" version="1.1" xmlns="http://www.w3.org/2000/svg" xmlns:xlink="http://www.w3.org/1999/xlink" xmlns:sketch="http://www.bohemiancoding.com/sketch/ns">
    <!-- Generator: Sketch 3.4.4 (17249) - http://www.bohemiancoding.com/sketch -->
    <title>Group@2x</title>
    <desc>Created with Sketch.</desc>
    <defs></defs>
    <g id="Page-1" stroke="none" stroke-width="1" fill="none" fill-rule="evenodd" sketch:type="MSPage">
        <g id="Group" sketch:type="MSLayerGroup">
            <path d="M198.231243,2.18570625 L290.917101,315.525383 L292.282766,314.328187 L2.94937682,185.508662 L3.22690313,187.151443 L199.874434,2.63129086 L198.231243,2.18570625 L198.231243,2.18570625 Z M200.149099,1.61840476 L199.688936,0.0627501631 L198.505908,1.17282014 L1.85837722,185.692973 L0.760325611,186.723307 L2.13590353,187.335753 L291.469292,316.155278 L293.449935,317.037117 L292.834957,314.958081 L200.149099,1.61840476 L200.149099,1.61840476 Z" id="Shape" fill="#DE579B" sketch:type="MSShapeGroup"></path>
            <path d="M239.303099,238.464432 L254.072197,266.627082 L254.957805,265.162649 L225,265.162649 L225.880155,266.637336 L241.068863,238.474686 L239.303099,238.464432 L239.303099,238.464432 Z M241.074316,237.535568 L240.201074,235.870415 L239.308552,237.525314 L224.119845,265.687963 L223.324516,267.162649 L225,267.162649 L254.957805,267.162649 L256.611394,267.162649 L255.843414,265.698217 L241.074316,237.535568 L241.074316,237.535568 Z" id="Shape" fill="#50E3C2" sketch:type="MSShapeGroup"></path>
            <rect id="Rectangle-9" fill="#FFFFFF" sketch:type="MSShapeGroup" x="26" y="139" width="315" height="85"></rect>
            <path d="M36.063,168.895 L36.063,184 L33.36,184 L33.36,146.5025 L43.0325,146.5025 C47.431522,146.5025 50.7484055,147.465324 52.98325,149.391 C55.2180945,151.316676 56.3355,154.063815 56.3355,157.6325 C56.3355,159.275508 56.030753,160.785993 55.42125,162.164 C54.811747,163.542007 53.9328391,164.730078 52.7845,165.72825 C51.6361609,166.726422 50.2405082,167.503747 48.5975,168.06025 C46.9544918,168.616753 45.0995103,168.895 43.0325,168.895 L36.063,168.895 Z M36.063,166.722 L43.0325,166.722 C44.693175,166.722 46.1771601,166.492336 47.4845,166.033 C48.7918399,165.573664 49.9004121,164.937671 50.81025,164.125 C51.7200879,163.312329 52.4179142,162.353922 52.90375,161.24975 C53.3895858,160.145578 53.6325,158.93984 53.6325,157.6325 C53.6325,154.752819 52.7447589,152.535674 50.96925,150.981 C49.1937411,149.426326 46.5481842,148.649 43.0325,148.649 L36.063,148.649 L36.063,166.722 Z M62.7485,184 L62.7485,157.6325 L64.0735,157.6325 C64.3738348,157.6325 64.5902493,157.694333 64.72275,157.818 C64.8552507,157.941667 64.9303332,158.153665 64.948,158.454 L65.16,164.019 C66.0080042,161.881323 67.1386596,160.207423 68.552,158.99725 C69.9653404,157.787077 71.7054897,157.182 73.7725,157.182 C74.567504,157.182 75.3006633,157.265916 75.972,157.43375 C76.6433367,157.601584 77.2793303,157.844498 77.88,158.1625 L77.5355,159.9115 C77.4824997,160.194168 77.3058348,160.3355 77.0055,160.3355 C76.8994995,160.3355 76.7493343,160.300167 76.555,160.2295 C76.3606657,160.158833 76.1177515,160.079334 75.82625,159.991 C75.5347485,159.902666 75.1770021,159.823167 74.753,159.7525 C74.3289979,159.681833 73.8431694,159.6465 73.2955,159.6465 C71.2991567,159.6465 69.6605897,160.264827 68.37975,161.5015 C67.0989103,162.738173 66.061004,164.522488 65.266,166.8545 L65.266,184 L62.7485,184 Z M87.049,157.6325 L87.049,184 L84.5315,184 L84.5315,157.6325 L87.049,157.6325 Z M88.162,148.543 C88.162,148.861002 88.0957507,149.156915 87.96325,149.43075 C87.8307493,149.704585 87.6585011,149.947499 87.4465,150.1595 C87.2344989,150.371501 86.9871681,150.539333 86.7045,150.663 C86.4218319,150.786667 86.1215016,150.8485 85.8035,150.8485 C85.4854984,150.8485 85.1851681,150.786667 84.9025,150.663 C84.6198319,150.539333 84.3725011,150.371501 84.1605,150.1595 C83.9484989,149.947499 83.7806673,149.704585 83.657,149.43075 C83.5333327,149.156915 83.4715,148.861002 83.4715,148.543 C83.4715,148.224998 83.5333327,147.920251 83.657,147.62875 C83.7806673,147.337249 83.9484989,147.085501 84.1605,146.8735 C84.3725011,146.661499 84.6198319,146.493667 84.9025,146.37 C85.1851681,146.246333 85.4854984,146.1845 85.8035,146.1845 C86.1215016,146.1845 86.4218319,146.246333 86.7045,146.37 C86.9871681,146.493667 87.2344989,146.661499 87.4465,146.8735 C87.6585011,147.085501 87.8307493,147.337249 87.96325,147.62875 C88.0957507,147.920251 88.162,148.224998 88.162,148.543 L88.162,148.543 Z M96.377,184 L96.377,157.6325 L97.755,157.6325 C98.2143356,157.6325 98.479333,157.853331 98.55,158.295 L98.7885,162.27 C99.9898393,160.750659 101.389909,159.527255 102.98875,158.59975 C104.587591,157.672245 106.36749,157.2085 108.3285,157.2085 C109.777174,157.2085 111.053578,157.438164 112.15775,157.8975 C113.261922,158.356836 114.176163,159.019329 114.9005,159.885 C115.624837,160.750671 116.172498,161.792994 116.5435,163.012 C116.914502,164.231006 117.1,165.608992 117.1,167.146 L117.1,184 L114.5825,184 L114.5825,167.146 C114.5825,164.672654 114.017172,162.733757 112.8865,161.32925 C111.755828,159.924743 110.024512,159.2225 107.6925,159.2225 C105.961158,159.2225 104.353507,159.668579 102.8695,160.56075 C101.385493,161.452921 100.060506,162.676326 98.8945,164.231 L98.8945,184 L96.377,184 Z M132.258,184.424 C130.473658,184.424 129.082422,183.929338 128.08425,182.94 C127.086078,181.950662 126.587,180.42251 126.587,178.3555 L126.587,160.3355 L122.7975,160.3355 C122.603166,160.3355 122.444167,160.282501 122.3205,160.1765 C122.196833,160.070499 122.135,159.920334 122.135,159.726 L122.135,158.7455 L126.64,158.4275 L127.276,148.9935 C127.293667,148.834499 127.359916,148.693167 127.47475,148.5695 C127.589584,148.445833 127.744166,148.384 127.9385,148.384 L129.131,148.384 L129.131,158.454 L137.4255,158.454 L137.4255,160.3355 L129.131,160.3355 L129.131,178.223 C129.131,178.947337 129.223749,179.570081 129.40925,180.09125 C129.594751,180.612419 129.850915,181.040832 130.17775,181.3765 C130.504585,181.712168 130.888831,181.959499 131.3305,182.1185 C131.772169,182.277501 132.249164,182.357 132.7615,182.357 C133.397503,182.357 133.945164,182.264251 134.4045,182.07875 C134.863836,181.893249 135.261332,181.690084 135.597,181.46925 C135.932668,181.248416 136.206499,181.045251 136.4185,180.85975 C136.630501,180.674249 136.798333,180.5815 136.922,180.5815 C137.063334,180.5815 137.204666,180.669832 137.346,180.8465 L138.035,181.9595 C137.363663,182.701504 136.511255,183.297748 135.47775,183.74825 C134.444245,184.198752 133.371006,184.424 132.258,184.424 L132.258,184.424 Z M147.204,157.6325 L147.204,184 L144.6865,184 L144.6865,157.6325 L147.204,157.6325 Z M148.317,148.543 C148.317,148.861002 148.250751,149.156915 148.11825,149.43075 C147.985749,149.704585 147.813501,149.947499 147.6015,150.1595 C147.389499,150.371501 147.142168,150.539333 146.8595,150.663 C146.576832,150.786667 146.276502,150.8485 145.9585,150.8485 C145.640498,150.8485 145.340168,150.786667 145.0575,150.663 C144.774832,150.539333 144.527501,150.371501 144.3155,150.1595 C144.103499,149.947499 143.935667,149.704585 143.812,149.43075 C143.688333,149.156915 143.6265,148.861002 143.6265,148.543 C143.6265,148.224998 143.688333,147.920251 143.812,147.62875 C143.935667,147.337249 144.103499,147.085501 144.3155,146.8735 C144.527501,146.661499 144.774832,146.493667 145.0575,146.37 C145.340168,146.246333 145.640498,146.1845 145.9585,146.1845 C146.276502,146.1845 146.576832,146.246333 146.8595,146.37 C147.142168,146.493667 147.389499,146.661499 147.6015,146.8735 C147.813501,147.085501 147.985749,147.337249 148.11825,147.62875 C148.250751,147.920251 148.317,148.224998 148.317,148.543 L148.317,148.543 Z M156.532,184 L156.532,157.6325 L157.91,157.6325 C158.369336,157.6325 158.634333,157.853331 158.705,158.295 L158.9435,162.27 C160.144839,160.750659 161.544909,159.527255 163.14375,158.59975 C164.742591,157.672245 166.52249,157.2085 168.4835,157.2085 C169.932174,157.2085 171.208578,157.438164 172.31275,157.8975 C173.416922,158.356836 174.331163,159.019329 175.0555,159.885 C175.779837,160.750671 176.327498,161.792994 176.6985,163.012 C177.069502,164.231006 177.255,165.608992 177.255,167.146 L177.255,184 L174.7375,184 L174.7375,167.146 C174.7375,164.672654 174.172172,162.733757 173.0415,161.32925 C171.910828,159.924743 170.179512,159.2225 167.8475,159.2225 C166.116158,159.2225 164.508507,159.668579 163.0245,160.56075 C161.540493,161.452921 160.215506,162.676326 159.0495,164.231 L159.0495,184 L156.532,184 Z M193.897,157.182 C195.045339,157.182 196.109745,157.323332 197.09025,157.606 C198.070755,157.888668 198.949663,158.286164 199.727,158.7985 L206.4845,158.7985 L206.4845,159.673 C206.4845,160.114669 206.237169,160.353166 205.7425,160.3885 L201.741,160.68 C202.235669,161.351337 202.615499,162.106579 202.8805,162.94575 C203.145501,163.784921 203.278,164.681495 203.278,165.6355 C203.278,166.907506 203.048336,168.060245 202.589,169.09375 C202.129664,170.127255 201.489254,171.01058 200.66775,171.74375 C199.846246,172.47692 198.861339,173.046665 197.713,173.453 C196.564661,173.859335 195.292674,174.0625 193.897,174.0625 C192.377659,174.0625 190.999673,173.832836 189.763,173.3735 C189.020996,173.797502 188.438002,174.300997 188.014,174.884 C187.589998,175.467003 187.378,176.032331 187.378,176.58 C187.378,177.33967 187.642997,177.922665 188.173,178.329 C188.703003,178.735335 189.405246,179.031249 190.27975,179.21675 C191.154254,179.402251 192.152411,179.5215 193.27425,179.5745 C194.396089,179.6275 195.535578,179.684916 196.69275,179.74675 C197.849922,179.808584 198.989411,179.918999 200.11125,180.078 C201.233089,180.237001 202.231246,180.515248 203.10575,180.91275 C203.980254,181.310252 204.682497,181.866746 205.2125,182.58225 C205.742503,183.297754 206.0075,184.247327 206.0075,185.431 C206.0075,186.526339 205.733669,187.577495 205.186,188.5845 C204.638331,189.591505 203.847755,190.483663 202.81425,191.261 C201.780745,192.038337 200.530841,192.661081 199.0645,193.12925 C197.598159,193.597419 195.955176,193.8315 194.1355,193.8315 C192.280491,193.8315 190.655174,193.641585 189.2595,193.26175 C187.863826,192.881915 186.693421,192.369587 185.74825,191.72475 C184.803079,191.079913 184.092002,190.333504 183.615,189.4855 C183.137998,188.637496 182.8995,187.736505 182.8995,186.7825 C182.8995,185.386826 183.358829,184.185505 184.2775,183.1785 C185.196171,182.171495 186.459325,181.394169 188.067,180.8465 C187.183662,180.546165 186.481419,180.113336 185.96025,179.548 C185.439081,178.982664 185.1785,178.196505 185.1785,177.1895 C185.1785,176.818498 185.249166,176.429835 185.3905,176.0235 C185.531834,175.617165 185.743832,175.215252 186.0265,174.81775 C186.309168,174.420248 186.649248,174.044835 187.04675,173.6915 C187.444252,173.338165 187.907997,173.020168 188.438,172.7375 C187.18366,172.013163 186.207587,171.050339 185.50975,169.849 C184.811913,168.647661 184.463,167.243175 184.463,165.6355 C184.463,164.363494 184.688248,163.210755 185.13875,162.17725 C185.589252,161.143745 186.225246,160.256004 187.04675,159.514 C187.868254,158.771996 188.861994,158.197835 190.028,157.7915 C191.194006,157.385165 192.48366,157.182 193.897,157.182 L193.897,157.182 Z M203.6755,185.7755 C203.6755,184.945163 203.459085,184.278253 203.02625,183.77475 C202.593415,183.271247 202.014837,182.878168 201.2905,182.5955 C200.566163,182.312832 199.731421,182.114084 198.78625,181.99925 C197.841079,181.884416 196.851755,181.8005 195.81825,181.7475 C194.784745,181.6945 193.746839,181.6415 192.7045,181.5885 C191.662161,181.5355 190.690505,181.429501 189.7895,181.2705 C189.118163,181.535501 188.49542,181.840248 187.92125,182.18475 C187.34708,182.529252 186.856835,182.917915 186.4505,183.35075 C186.044165,183.783585 185.726168,184.260581 185.4965,184.78175 C185.266832,185.302919 185.152,185.872664 185.152,186.491 C185.152,187.268337 185.350748,187.988247 185.74825,188.65075 C186.145752,189.313253 186.728746,189.887414 187.49725,190.37325 C188.265754,190.859086 189.206494,191.243332 190.3195,191.526 C191.432506,191.808668 192.713326,191.95 194.162,191.95 C195.504673,191.95 196.754578,191.799835 197.91175,191.4995 C199.068922,191.199165 200.075912,190.775169 200.93275,190.2275 C201.789588,189.679831 202.460914,189.02617 202.94675,188.2665 C203.432586,187.50683 203.6755,186.676505 203.6755,185.7755 L203.6755,185.7755 Z M193.897,172.34 C195.027672,172.34 196.034662,172.176585 196.918,171.84975 C197.801338,171.522915 198.54333,171.068003 199.144,170.485 C199.74467,169.901997 200.199582,169.204171 200.50875,168.3915 C200.817918,167.578829 200.9725,166.677838 200.9725,165.6885 C200.9725,164.699162 200.813502,163.793754 200.4955,162.97225 C200.177498,162.150746 199.713753,161.448503 199.10425,160.8655 C198.494747,160.282497 197.752754,159.832002 196.87825,159.514 C196.003746,159.195998 195.010006,159.037 193.897,159.037 C192.783994,159.037 191.785838,159.195998 190.9025,159.514 C190.019162,159.832002 189.272753,160.282497 188.66325,160.8655 C188.053747,161.448503 187.590002,162.150746 187.272,162.97225 C186.953998,163.793754 186.795,164.699162 186.795,165.6885 C186.795,166.677838 186.953998,167.578829 187.272,168.3915 C187.590002,169.204171 188.053747,169.901997 188.66325,170.485 C189.272753,171.068003 190.019162,171.522915 190.9025,171.84975 C191.785838,172.176585 192.783994,172.34 193.897,172.34 L193.897,172.34 Z M226.9425,168.895 L226.9425,184 L224.2395,184 L224.2395,146.5025 L233.912,146.5025 C238.311022,146.5025 241.627905,147.465324 243.86275,149.391 C246.097595,151.316676 247.215,154.063815 247.215,157.6325 C247.215,159.275508 246.910253,160.785993 246.30075,162.164 C245.691247,163.542007 244.812339,164.730078 243.664,165.72825 C242.515661,166.726422 241.120008,167.503747 239.477,168.06025 C237.833992,168.616753 235.97901,168.895 233.912,168.895 L226.9425,168.895 Z M226.9425,166.722 L233.912,166.722 C235.572675,166.722 237.05666,166.492336 238.364,166.033 C239.67134,165.573664 240.779912,164.937671 241.68975,164.125 C242.599588,163.312329 243.297414,162.353922 243.78325,161.24975 C244.269086,160.145578 244.512,158.93984 244.512,157.6325 C244.512,154.752819 243.624259,152.535674 241.84875,150.981 C240.073241,149.426326 237.427684,148.649 233.912,148.649 L226.9425,148.649 L226.9425,166.722 Z M256.8875,145.4425 L256.8875,184 L254.37,184 L254.37,145.4425 L256.8875,145.4425 Z M283.043,184 C282.512997,184 282.186167,183.752669 282.0625,183.258 L281.6915,179.8925 C280.967163,180.59917 280.247254,181.235164 279.53175,181.8005 C278.816246,182.365836 278.069837,182.842831 277.2925,183.2315 C276.515163,183.620169 275.676005,183.916082 274.775,184.11925 C273.873995,184.322418 272.884672,184.424 271.807,184.424 C270.905995,184.424 270.031504,184.291501 269.1835,184.0265 C268.335496,183.761499 267.58467,183.355169 266.931,182.8075 C266.27733,182.259831 265.751752,181.557588 265.35425,180.70075 C264.956748,179.843912 264.758,178.814839 264.758,177.6135 C264.758,176.500494 265.075997,175.467005 265.712,174.513 C266.348003,173.558995 267.341743,172.72867 268.69325,172.022 C270.044757,171.31533 271.784906,170.750002 273.91375,170.326 C276.042594,169.901998 278.599818,169.654667 281.5855,169.584 L281.5855,166.828 C281.5855,164.389988 281.059922,162.512923 280.00875,161.19675 C278.957578,159.880577 277.39851,159.2225 275.3315,159.2225 C274.059494,159.2225 272.977421,159.399165 272.08525,159.7525 C271.193079,160.105835 270.437836,160.494498 269.8195,160.9185 C269.201164,161.342502 268.697669,161.731165 268.309,162.0845 C267.920331,162.437835 267.593501,162.6145 267.3285,162.6145 C266.975165,162.6145 266.710168,162.455502 266.5335,162.1375 L266.083,161.369 C267.461007,159.990993 268.909659,158.94867 270.429,158.242 C271.948341,157.53533 273.670824,157.182 275.5965,157.182 C277.00984,157.182 278.246495,157.407248 279.3065,157.85775 C280.366505,158.308252 281.245413,158.953079 281.94325,159.79225 C282.641087,160.631421 283.166665,161.647244 283.52,162.83975 C283.873335,164.032256 284.05,165.361659 284.05,166.828 L284.05,184 L283.043,184 Z M272.443,182.5955 C273.467672,182.5955 274.408412,182.485084 275.26525,182.26425 C276.122088,182.043416 276.91708,181.734252 277.65025,181.33675 C278.38342,180.939248 279.067997,180.466669 279.704,179.919 C280.340003,179.371331 280.967164,178.779503 281.5855,178.1435 L281.5855,171.28 C279.076821,171.350667 276.917092,171.540582 275.10625,171.84975 C273.295408,172.158918 271.802589,172.578497 270.62775,173.1085 C269.452911,173.638503 268.587253,174.27008 268.03075,175.00325 C267.474247,175.73642 267.196,176.571162 267.196,177.5075 C267.196,178.390838 267.341749,179.154913 267.63325,179.79975 C267.924751,180.444587 268.308998,180.974581 268.786,181.38975 C269.263002,181.804919 269.819497,182.109666 270.4555,182.304 C271.091503,182.498334 271.753997,182.5955 272.443,182.5955 L272.443,182.5955 Z M299.208,184.424 C297.423658,184.424 296.032422,183.929338 295.03425,182.94 C294.036078,181.950662 293.537,180.42251 293.537,178.3555 L293.537,160.3355 L289.7475,160.3355 C289.553166,160.3355 289.394167,160.282501 289.2705,160.1765 C289.146833,160.070499 289.085,159.920334 289.085,159.726 L289.085,158.7455 L293.59,158.4275 L294.226,148.9935 C294.243667,148.834499 294.309916,148.693167 294.42475,148.5695 C294.539584,148.445833 294.694166,148.384 294.8885,148.384 L296.081,148.384 L296.081,158.454 L304.3755,158.454 L304.3755,160.3355 L296.081,160.3355 L296.081,178.223 C296.081,178.947337 296.173749,179.570081 296.35925,180.09125 C296.544751,180.612419 296.800915,181.040832 297.12775,181.3765 C297.454585,181.712168 297.838831,181.959499 298.2805,182.1185 C298.722169,182.277501 299.199164,182.357 299.7115,182.357 C300.347503,182.357 300.895164,182.264251 301.3545,182.07875 C301.813836,181.893249 302.211332,181.690084 302.547,181.46925 C302.882668,181.248416 303.156499,181.045251 303.3685,180.85975 C303.580501,180.674249 303.748333,180.5815 303.872,180.5815 C304.013334,180.5815 304.154666,180.669832 304.296,180.8465 L304.985,181.9595 C304.313663,182.701504 303.461255,183.297748 302.42775,183.74825 C301.394245,184.198752 300.321006,184.424 299.208,184.424 L299.208,184.424 Z M320.832,157.2085 C322.316007,157.2085 323.689577,157.464664 324.95275,157.977 C326.215923,158.489336 327.311245,159.235745 328.23875,160.21625 C329.166255,161.196755 329.890581,162.402493 330.41175,163.8335 C330.932919,165.264507 331.1935,166.907491 331.1935,168.7625 C331.1935,169.151169 331.136084,169.416166 331.02125,169.5575 C330.906416,169.698834 330.725335,169.7695 330.478,169.7695 L311.4245,169.7695 L311.4245,170.273 C311.4245,172.251677 311.654164,173.991826 312.1135,175.4935 C312.572836,176.995174 313.226496,178.253912 314.0745,179.26975 C314.922504,180.285588 315.947161,181.049664 317.1485,181.562 C318.349839,182.074336 319.692493,182.3305 321.1765,182.3305 C322.501507,182.3305 323.649828,182.184751 324.6215,181.89325 C325.593172,181.601749 326.410247,181.274918 327.07275,180.91275 C327.735253,180.550582 328.260831,180.223751 328.6495,179.93225 C329.038169,179.640749 329.320832,179.495 329.4975,179.495 C329.727168,179.495 329.903833,179.583332 330.0275,179.76 L330.7165,180.608 C330.292498,181.138003 329.731587,181.632664 329.03375,182.092 C328.335913,182.551336 327.558588,182.944415 326.70175,183.27125 C325.844912,183.598085 324.926255,183.858666 323.94575,184.053 C322.965245,184.247334 321.980338,184.3445 320.991,184.3445 C319.188991,184.3445 317.546007,184.03092 316.062,183.40375 C314.577993,182.77658 313.306005,181.862339 312.246,180.661 C311.185995,179.459661 310.36892,177.988925 309.79475,176.24875 C309.22058,174.508575 308.9335,172.516678 308.9335,170.273 C308.9335,168.382657 309.202914,166.638091 309.74175,165.03925 C310.280586,163.440409 311.057912,162.062422 312.07375,160.90525 C313.089588,159.748078 314.335076,158.84267 315.81025,158.189 C317.285424,157.53533 318.959324,157.2085 320.832,157.2085 L320.832,157.2085 Z M320.8585,159.09 C319.49816,159.09 318.279172,159.301998 317.2015,159.726 C316.123828,160.150002 315.191921,160.759496 314.40575,161.5545 C313.619579,162.349504 312.983586,163.303494 312.49775,164.4165 C312.011914,165.529506 311.689501,166.774993 311.5305,168.153 L328.9145,168.153 C328.9145,166.73966 328.720169,165.472089 328.3315,164.35025 C327.942831,163.228411 327.39517,162.278837 326.6885,161.5015 C325.98183,160.724163 325.133838,160.127919 324.1445,159.71275 C323.155162,159.297581 322.059839,159.09 320.8585,159.09 L320.8585,159.09 Z" id="Printing-Plate" fill="#4A4A4A" sketch:type="MSShapeGroup"></path>
            <path d="M38.264,204.328 C38.2159998,204.408 38.1653336,204.468 38.112,204.508 C38.0586664,204.548 37.9893338,204.568 37.904,204.568 C37.8133329,204.568 37.7080006,204.522667 37.588,204.432 C37.4679994,204.341333 37.3160009,204.241334 37.132,204.132 C36.9479991,204.022666 36.726668,203.922667 36.468,203.832 C36.209332,203.741333 35.8960018,203.696 35.528,203.696 C35.1813316,203.696 34.874668,203.742666 34.608,203.836 C34.341332,203.929334 34.1186676,204.055999 33.94,204.216 C33.7613324,204.376001 33.6266671,204.563999 33.536,204.78 C33.4453329,204.996001 33.4,205.229332 33.4,205.48 C33.4,205.800002 33.4786659,206.065332 33.636,206.276 C33.7933341,206.486668 34.001332,206.666666 34.26,206.816 C34.518668,206.965334 34.8119984,207.094666 35.14,207.204 C35.4680016,207.313334 35.8039983,207.426666 36.148,207.544 C36.4920017,207.661334 36.8279984,207.793333 37.156,207.94 C37.4840016,208.086667 37.777332,208.271999 38.036,208.496 C38.294668,208.720001 38.5026659,208.994665 38.66,209.32 C38.8173341,209.645335 38.896,210.045331 38.896,210.52 C38.896,211.021336 38.8106675,211.491998 38.64,211.932 C38.4693325,212.372002 38.2200016,212.754665 37.892,213.08 C37.5639984,213.405335 37.1613357,213.661332 36.684,213.848 C36.2066643,214.034668 35.664003,214.128 35.056,214.128 C34.314663,214.128 33.6386697,213.993335 33.028,213.724 C32.4173303,213.454665 31.8960022,213.090669 31.464,212.632 L31.912,211.896 C31.9546669,211.837333 32.0066664,211.788 32.068,211.748 C32.1293336,211.708 32.197333,211.688 32.272,211.688 C32.3840006,211.688 32.5119993,211.747999 32.656,211.868 C32.8000007,211.988001 32.9799989,212.119999 33.196,212.264 C33.4120011,212.408001 33.6733318,212.539999 33.98,212.66 C34.2866682,212.780001 34.6613311,212.84 35.104,212.84 C35.4720018,212.84 35.7999986,212.789334 36.088,212.688 C36.3760014,212.586666 36.619999,212.444001 36.82,212.26 C37.020001,212.075999 37.1733328,211.856001 37.28,211.6 C37.3866672,211.343999 37.44,211.058668 37.44,210.744 C37.44,210.397332 37.3613341,210.113334 37.204,209.892 C37.0466659,209.670666 36.8400013,209.485334 36.584,209.336 C36.3279987,209.186666 36.0360016,209.060001 35.708,208.956 C35.3799984,208.851999 35.0440017,208.745334 34.7,208.636 C34.3559983,208.526666 34.0200016,208.400001 33.692,208.256 C33.3639984,208.111999 33.0720013,207.925334 32.816,207.696 C32.5599987,207.466666 32.3533341,207.180002 32.196,206.836 C32.0386659,206.491998 31.96,206.066669 31.96,205.56 C31.96,205.154665 32.0386659,204.762669 32.196,204.384 C32.3533341,204.005331 32.5813318,203.669335 32.88,203.376 C33.1786682,203.082665 33.5479978,202.848001 33.988,202.672 C34.4280022,202.495999 34.9333305,202.408 35.504,202.408 C36.1440032,202.408 36.7279974,202.509332 37.256,202.712 C37.7840026,202.914668 38.2453314,203.207998 38.64,203.592 L38.264,204.328 Z M50.204,214 L49.004,214 C48.8653326,214 48.7533338,213.965334 48.668,213.896 C48.5826662,213.826666 48.5186669,213.738667 48.476,213.632 L47.404,210.864 L42.26,210.864 L41.188,213.632 C41.1506665,213.728 41.0866671,213.813333 40.996,213.888 C40.9053329,213.962667 40.793334,214 40.66,214 L39.46,214 L44.044,202.536 L45.62,202.536 L50.204,214 Z M42.692,209.744 L46.972,209.744 L45.172,205.08 C45.0546661,204.791999 44.9400006,204.432002 44.828,204 C44.769333,204.218668 44.7120003,204.419999 44.656,204.604 C44.5999997,204.788001 44.5453336,204.949333 44.492,205.088 L42.692,209.744 Z M52.352,202.536 C52.4906674,202.536 52.593333,202.553333 52.66,202.588 C52.726667,202.622667 52.8026662,202.693333 52.888,202.8 L59.528,211.44 C59.5119999,211.301333 59.5013334,211.166667 59.496,211.036 C59.4906666,210.905333 59.488,210.778667 59.488,210.656 L59.488,202.536 L60.848,202.536 L60.848,214 L60.064,214 C59.9413327,214 59.8386671,213.978667 59.756,213.936 C59.6733329,213.893333 59.5920004,213.821334 59.512,213.72 L52.88,205.088 C52.8906667,205.221334 52.8986666,205.351999 52.904,205.48 C52.9093334,205.608001 52.912,205.725333 52.912,205.832 L52.912,214 L51.552,214 L51.552,202.536 L52.352,202.536 Z M65.388,214 L63.836,214 L63.836,202.536 L65.388,202.536 L65.388,214 Z M76.168,202.536 L76.168,203.84 L72.464,203.84 L72.464,214 L70.912,214 L70.912,203.84 L67.192,203.84 L67.192,202.536 L76.168,202.536 Z M79.54,214 L77.988,214 L77.988,202.536 L79.54,202.536 L79.54,214 Z M90.496,202.536 L90.496,203.112 C90.496,203.293334 90.4400006,203.463999 90.328,203.624 L83.84,212.736 L90.384,212.736 L90.384,214 L81.808,214 L81.808,213.392 C81.808,213.231999 81.8586662,213.080001 81.96,212.936 L88.456,203.8 L82.112,203.8 L82.112,202.536 L90.496,202.536 Z M99.46,202.536 L99.46,203.8 L93.956,203.8 L93.956,207.608 L98.412,207.608 L98.412,208.824 L93.956,208.824 L93.956,212.736 L99.46,212.736 L99.46,214 L92.396,214 L92.396,202.536 L99.46,202.536 Z M111.528,208.272 C111.528,209.130671 111.392001,209.911996 111.12,210.616 C110.847999,211.320004 110.464002,211.922664 109.968,212.424 C109.471998,212.925336 108.877337,213.313332 108.184,213.588 C107.490663,213.862668 106.722671,214 105.88,214 L101.592,214 L101.592,202.536 L105.88,202.536 C106.722671,202.536 107.490663,202.673332 108.184,202.948 C108.877337,203.222668 109.471998,203.611997 109.968,204.116 C110.464002,204.620003 110.847999,205.223996 111.12,205.928 C111.392001,206.632004 111.528,207.413329 111.528,208.272 L111.528,208.272 Z M109.936,208.272 C109.936,207.567996 109.840001,206.938669 109.648,206.384 C109.455999,205.829331 109.184002,205.360002 108.832,204.976 C108.479998,204.591998 108.053336,204.298668 107.552,204.096 C107.050664,203.893332 106.493336,203.792 105.88,203.792 L103.152,203.792 L103.152,212.744 L105.88,212.744 C106.493336,212.744 107.050664,212.642668 107.552,212.44 C108.053336,212.237332 108.479998,211.945335 108.832,211.564 C109.184002,211.182665 109.455999,210.714669 109.648,210.16 C109.840001,209.605331 109.936,208.976004 109.936,208.272 L109.936,208.272 Z M115.248,202.536 L116.536,202.536 C116.674667,202.536 116.789333,202.570666 116.88,202.64 C116.970667,202.709334 117.032,202.797333 117.064,202.904 L119.432,210.872 C119.474667,211.016001 119.513333,211.170666 119.548,211.336 C119.582667,211.501334 119.616,211.674666 119.648,211.856 C119.685334,211.674666 119.722666,211.500001 119.76,211.332 C119.797334,211.163999 119.84,211.010667 119.888,210.872 L122.584,202.904 C122.616,202.813333 122.678666,202.729334 122.772,202.652 C122.865334,202.574666 122.978666,202.536 123.112,202.536 L123.56,202.536 C123.698667,202.536 123.812,202.570666 123.9,202.64 C123.988,202.709334 124.050666,202.797333 124.088,202.904 L126.768,210.872 C126.864,211.149335 126.949333,211.466665 127.024,211.824 C127.056,211.647999 127.085333,211.480001 127.112,211.32 C127.138667,211.159999 127.173333,211.010667 127.216,210.872 L129.592,202.904 C129.618667,202.808 129.678666,202.722667 129.772,202.648 C129.865334,202.573333 129.978666,202.536 130.112,202.536 L131.32,202.536 L127.744,214 L126.352,214 L123.448,205.256 C123.389333,205.090666 123.336,204.898668 123.288,204.68 C123.261333,204.786667 123.236,204.889333 123.212,204.988 C123.188,205.086667 123.162667,205.176 123.136,205.256 L120.216,214 L118.824,214 L115.248,202.536 Z M143.38,208.272 C143.38,209.130671 143.244001,209.918663 142.972,210.636 C142.699999,211.353337 142.316002,211.970664 141.82,212.488 C141.323998,213.005336 140.728003,213.406665 140.032,213.692 C139.335997,213.977335 138.566671,214.12 137.724,214.12 C136.881329,214.12 136.113337,213.977335 135.42,213.692 C134.726663,213.406665 134.132002,213.005336 133.636,212.488 C133.139998,211.970664 132.756001,211.353337 132.484,210.636 C132.211999,209.918663 132.076,209.130671 132.076,208.272 C132.076,207.413329 132.211999,206.625337 132.484,205.908 C132.756001,205.190663 133.139998,204.572003 133.636,204.052 C134.132002,203.531997 134.726663,203.128001 135.42,202.84 C136.113337,202.551999 136.881329,202.408 137.724,202.408 C138.566671,202.408 139.335997,202.551999 140.032,202.84 C140.728003,203.128001 141.323998,203.531997 141.82,204.052 C142.316002,204.572003 142.699999,205.190663 142.972,205.908 C143.244001,206.625337 143.38,207.413329 143.38,208.272 L143.38,208.272 Z M141.788,208.272 C141.788,207.567996 141.692001,206.936003 141.5,206.376 C141.307999,205.815997 141.036002,205.342669 140.684,204.956 C140.331998,204.569331 139.905336,204.272001 139.404,204.064 C138.902664,203.855999 138.34267,203.752 137.724,203.752 C137.110664,203.752 136.553336,203.855999 136.052,204.064 C135.550664,204.272001 135.122668,204.569331 134.768,204.956 C134.413332,205.342669 134.140001,205.815997 133.948,206.376 C133.755999,206.936003 133.66,207.567996 133.66,208.272 C133.66,208.976004 133.755999,209.606664 133.948,210.164 C134.140001,210.721336 134.413332,211.193331 134.768,211.58 C135.122668,211.966669 135.550664,212.262666 136.052,212.468 C136.553336,212.673334 137.110664,212.776 137.724,212.776 C138.34267,212.776 138.902664,212.673334 139.404,212.468 C139.905336,212.262666 140.331998,211.966669 140.684,211.58 C141.036002,211.193331 141.307999,210.721336 141.5,210.164 C141.692001,209.606664 141.788,208.976004 141.788,208.272 L141.788,208.272 Z M147.104,209.216 L147.104,214 L145.56,214 L145.56,202.536 L148.8,202.536 C149.525337,202.536 150.151997,202.609333 150.68,202.756 C151.208003,202.902667 151.643998,203.114665 151.988,203.392 C152.332002,203.669335 152.586666,204.003998 152.752,204.396 C152.917334,204.788002 153,205.226664 153,205.712 C153,206.117335 152.936001,206.495998 152.808,206.848 C152.679999,207.200002 152.494668,207.515999 152.252,207.796 C152.009332,208.076001 151.713335,208.314666 151.364,208.512 C151.014665,208.709334 150.618669,208.858666 150.176,208.96 C150.368001,209.072001 150.538666,209.234666 150.688,209.448 L154.032,214 L152.656,214 C152.373332,214 152.165334,213.890668 152.032,213.672 L149.056,209.576 C148.965333,209.447999 148.866667,209.356 148.76,209.3 C148.653333,209.244 148.493334,209.216 148.28,209.216 L147.104,209.216 Z M147.104,208.088 L148.728,208.088 C149.181336,208.088 149.579998,208.033334 149.924,207.924 C150.268002,207.814666 150.555999,207.660001 150.788,207.46 C151.020001,207.259999 151.194666,207.021335 151.312,206.744 C151.429334,206.466665 151.488,206.160002 151.488,205.824 C151.488,205.14133 151.262669,204.626668 150.812,204.28 C150.361331,203.933332 149.690671,203.76 148.8,203.76 L147.104,203.76 L147.104,208.088 Z M165.54,208.272 C165.54,209.130671 165.404001,209.911996 165.132,210.616 C164.859999,211.320004 164.476002,211.922664 163.98,212.424 C163.483998,212.925336 162.889337,213.313332 162.196,213.588 C161.502663,213.862668 160.734671,214 159.892,214 L155.604,214 L155.604,202.536 L159.892,202.536 C160.734671,202.536 161.502663,202.673332 162.196,202.948 C162.889337,203.222668 163.483998,203.611997 163.98,204.116 C164.476002,204.620003 164.859999,205.223996 165.132,205.928 C165.404001,206.632004 165.54,207.413329 165.54,208.272 L165.54,208.272 Z M163.948,208.272 C163.948,207.567996 163.852001,206.938669 163.66,206.384 C163.467999,205.829331 163.196002,205.360002 162.844,204.976 C162.491998,204.591998 162.065336,204.298668 161.564,204.096 C161.062664,203.893332 160.505336,203.792 159.892,203.792 L157.164,203.792 L157.164,212.744 L159.892,212.744 C160.505336,212.744 161.062664,212.642668 161.564,212.44 C162.065336,212.237332 162.491998,211.945335 162.844,211.564 C163.196002,211.182665 163.467999,210.714669 163.66,210.16 C163.852001,209.605331 163.948,208.976004 163.948,208.272 L163.948,208.272 Z M169.256,209.712 L169.256,214 L167.712,214 L167.712,202.536 L171.096,202.536 C171.821337,202.536 172.451997,202.619999 172.988,202.788 C173.524003,202.956001 173.967998,203.194665 174.32,203.504 C174.672002,203.813335 174.934666,204.186664 175.108,204.624 C175.281334,205.061336 175.368,205.549331 175.368,206.088 C175.368,206.621336 175.274668,207.109331 175.088,207.552 C174.901332,207.994669 174.628002,208.375998 174.268,208.696 C173.907998,209.016002 173.461336,209.265332 172.928,209.444 C172.394664,209.622668 171.784003,209.712 171.096,209.712 L169.256,209.712 Z M169.256,208.48 L171.096,208.48 C171.538669,208.48 171.929332,208.421334 172.268,208.304 C172.606668,208.186666 172.890665,208.022668 173.12,207.812 C173.349334,207.601332 173.522666,207.349335 173.64,207.056 C173.757334,206.762665 173.816,206.440002 173.816,206.088 C173.816,205.35733 173.590669,204.786669 173.14,204.376 C172.689331,203.965331 172.008005,203.76 171.096,203.76 L169.256,203.76 L169.256,208.48 Z M178.932,209.216 L178.932,214 L177.388,214 L177.388,202.536 L180.628,202.536 C181.353337,202.536 181.979997,202.609333 182.508,202.756 C183.036003,202.902667 183.471998,203.114665 183.816,203.392 C184.160002,203.669335 184.414666,204.003998 184.58,204.396 C184.745334,204.788002 184.828,205.226664 184.828,205.712 C184.828,206.117335 184.764001,206.495998 184.636,206.848 C184.507999,207.200002 184.322668,207.515999 184.08,207.796 C183.837332,208.076001 183.541335,208.314666 183.192,208.512 C182.842665,208.709334 182.446669,208.858666 182.004,208.96 C182.196001,209.072001 182.366666,209.234666 182.516,209.448 L185.86,214 L184.484,214 C184.201332,214 183.993334,213.890668 183.86,213.672 L180.884,209.576 C180.793333,209.447999 180.694667,209.356 180.588,209.3 C180.481333,209.244 180.321334,209.216 180.108,209.216 L178.932,209.216 Z M178.932,208.088 L180.556,208.088 C181.009336,208.088 181.407998,208.033334 181.752,207.924 C182.096002,207.814666 182.383999,207.660001 182.616,207.46 C182.848001,207.259999 183.022666,207.021335 183.14,206.744 C183.257334,206.466665 183.316,206.160002 183.316,205.824 C183.316,205.14133 183.090669,204.626668 182.64,204.28 C182.189331,203.933332 181.518671,203.76 180.628,203.76 L178.932,203.76 L178.932,208.088 Z M194.496,202.536 L194.496,203.8 L188.992,203.8 L188.992,207.608 L193.448,207.608 L193.448,208.824 L188.992,208.824 L188.992,212.736 L194.496,212.736 L194.496,214 L187.432,214 L187.432,202.536 L194.496,202.536 Z M202.5,204.328 C202.452,204.408 202.401334,204.468 202.348,204.508 C202.294666,204.548 202.225334,204.568 202.14,204.568 C202.049333,204.568 201.944001,204.522667 201.824,204.432 C201.703999,204.341333 201.552001,204.241334 201.368,204.132 C201.183999,204.022666 200.962668,203.922667 200.704,203.832 C200.445332,203.741333 200.132002,203.696 199.764,203.696 C199.417332,203.696 199.110668,203.742666 198.844,203.836 C198.577332,203.929334 198.354668,204.055999 198.176,204.216 C197.997332,204.376001 197.862667,204.563999 197.772,204.78 C197.681333,204.996001 197.636,205.229332 197.636,205.48 C197.636,205.800002 197.714666,206.065332 197.872,206.276 C198.029334,206.486668 198.237332,206.666666 198.496,206.816 C198.754668,206.965334 199.047998,207.094666 199.376,207.204 C199.704002,207.313334 200.039998,207.426666 200.384,207.544 C200.728002,207.661334 201.063998,207.793333 201.392,207.94 C201.720002,208.086667 202.013332,208.271999 202.272,208.496 C202.530668,208.720001 202.738666,208.994665 202.896,209.32 C203.053334,209.645335 203.132,210.045331 203.132,210.52 C203.132,211.021336 203.046667,211.491998 202.876,211.932 C202.705332,212.372002 202.456002,212.754665 202.128,213.08 C201.799998,213.405335 201.397336,213.661332 200.92,213.848 C200.442664,214.034668 199.900003,214.128 199.292,214.128 C198.550663,214.128 197.87467,213.993335 197.264,213.724 C196.65333,213.454665 196.132002,213.090669 195.7,212.632 L196.148,211.896 C196.190667,211.837333 196.242666,211.788 196.304,211.748 C196.365334,211.708 196.433333,211.688 196.508,211.688 C196.620001,211.688 196.747999,211.747999 196.892,211.868 C197.036001,211.988001 197.215999,212.119999 197.432,212.264 C197.648001,212.408001 197.909332,212.539999 198.216,212.66 C198.522668,212.780001 198.897331,212.84 199.34,212.84 C199.708002,212.84 200.035999,212.789334 200.324,212.688 C200.612001,212.586666 200.855999,212.444001 201.056,212.26 C201.256001,212.075999 201.409333,211.856001 201.516,211.6 C201.622667,211.343999 201.676,211.058668 201.676,210.744 C201.676,210.397332 201.597334,210.113334 201.44,209.892 C201.282666,209.670666 201.076001,209.485334 200.82,209.336 C200.563999,209.186666 200.272002,209.060001 199.944,208.956 C199.615998,208.851999 199.280002,208.745334 198.936,208.636 C198.591998,208.526666 198.256002,208.400001 197.928,208.256 C197.599998,208.111999 197.308001,207.925334 197.052,207.696 C196.795999,207.466666 196.589334,207.180002 196.432,206.836 C196.274666,206.491998 196.196,206.066669 196.196,205.56 C196.196,205.154665 196.274666,204.762669 196.432,204.384 C196.589334,204.005331 196.817332,203.669335 197.116,203.376 C197.414668,203.082665 197.783998,202.848001 198.224,202.672 C198.664002,202.495999 199.16933,202.408 199.74,202.408 C200.380003,202.408 200.963997,202.509332 201.492,202.712 C202.020003,202.914668 202.481331,203.207998 202.876,203.592 L202.5,204.328 Z M210.88,204.328 C210.832,204.408 210.781334,204.468 210.728,204.508 C210.674666,204.548 210.605334,204.568 210.52,204.568 C210.429333,204.568 210.324001,204.522667 210.204,204.432 C210.083999,204.341333 209.932001,204.241334 209.748,204.132 C209.563999,204.022666 209.342668,203.922667 209.084,203.832 C208.825332,203.741333 208.512002,203.696 208.144,203.696 C207.797332,203.696 207.490668,203.742666 207.224,203.836 C206.957332,203.929334 206.734668,204.055999 206.556,204.216 C206.377332,204.376001 206.242667,204.563999 206.152,204.78 C206.061333,204.996001 206.016,205.229332 206.016,205.48 C206.016,205.800002 206.094666,206.065332 206.252,206.276 C206.409334,206.486668 206.617332,206.666666 206.876,206.816 C207.134668,206.965334 207.427998,207.094666 207.756,207.204 C208.084002,207.313334 208.419998,207.426666 208.764,207.544 C209.108002,207.661334 209.443998,207.793333 209.772,207.94 C210.100002,208.086667 210.393332,208.271999 210.652,208.496 C210.910668,208.720001 211.118666,208.994665 211.276,209.32 C211.433334,209.645335 211.512,210.045331 211.512,210.52 C211.512,211.021336 211.426667,211.491998 211.256,211.932 C211.085332,212.372002 210.836002,212.754665 210.508,213.08 C210.179998,213.405335 209.777336,213.661332 209.3,213.848 C208.822664,214.034668 208.280003,214.128 207.672,214.128 C206.930663,214.128 206.25467,213.993335 205.644,213.724 C205.03333,213.454665 204.512002,213.090669 204.08,212.632 L204.528,211.896 C204.570667,211.837333 204.622666,211.788 204.684,211.748 C204.745334,211.708 204.813333,211.688 204.888,211.688 C205.000001,211.688 205.127999,211.747999 205.272,211.868 C205.416001,211.988001 205.595999,212.119999 205.812,212.264 C206.028001,212.408001 206.289332,212.539999 206.596,212.66 C206.902668,212.780001 207.277331,212.84 207.72,212.84 C208.088002,212.84 208.415999,212.789334 208.704,212.688 C208.992001,212.586666 209.235999,212.444001 209.436,212.26 C209.636001,212.075999 209.789333,211.856001 209.896,211.6 C210.002667,211.343999 210.056,211.058668 210.056,210.744 C210.056,210.397332 209.977334,210.113334 209.82,209.892 C209.662666,209.670666 209.456001,209.485334 209.2,209.336 C208.943999,209.186666 208.652002,209.060001 208.324,208.956 C207.995998,208.851999 207.660002,208.745334 207.316,208.636 C206.971998,208.526666 206.636002,208.400001 206.308,208.256 C205.979998,208.111999 205.688001,207.925334 205.432,207.696 C205.175999,207.466666 204.969334,207.180002 204.812,206.836 C204.654666,206.491998 204.576,206.066669 204.576,205.56 C204.576,205.154665 204.654666,204.762669 204.812,204.384 C204.969334,204.005331 205.197332,203.669335 205.496,203.376 C205.794668,203.082665 206.163998,202.848001 206.604,202.672 C207.044002,202.495999 207.54933,202.408 208.12,202.408 C208.760003,202.408 209.343997,202.509332 209.872,202.712 C210.400003,202.914668 210.861331,203.207998 211.256,203.592 L210.88,204.328 Z M226.312,208.272 C226.312,209.130671 226.176001,209.911996 225.904,210.616 C225.631999,211.320004 225.248002,211.922664 224.752,212.424 C224.255997,212.925336 223.661337,213.313332 222.968,213.588 C222.274663,213.862668 221.506671,214 220.664,214 L216.376,214 L216.376,202.536 L220.664,202.536 C221.506671,202.536 222.274663,202.673332 222.968,202.948 C223.661337,203.222668 224.255997,203.611997 224.752,204.116 C225.248002,204.620003 225.631999,205.223996 225.904,205.928 C226.176001,206.632004 226.312,207.413329 226.312,208.272 L226.312,208.272 Z M224.72,208.272 C224.72,207.567996 224.624001,206.938669 224.432,206.384 C224.239999,205.829331 223.968002,205.360002 223.616,204.976 C223.263998,204.591998 222.837336,204.298668 222.336,204.096 C221.834664,203.893332 221.277336,203.792 220.664,203.792 L217.936,203.792 L217.936,212.744 L220.664,212.744 C221.277336,212.744 221.834664,212.642668 222.336,212.44 C222.837336,212.237332 223.263998,211.945335 223.616,211.564 C223.968002,211.182665 224.239999,210.714669 224.432,210.16 C224.624001,209.605331 224.72,208.976004 224.72,208.272 L224.72,208.272 Z M235.388,202.536 L235.388,203.8 L229.884,203.8 L229.884,207.608 L234.34,207.608 L234.34,208.824 L229.884,208.824 L229.884,212.736 L235.388,212.736 L235.388,214 L228.324,214 L228.324,202.536 L235.388,202.536 Z M236.192,202.536 L237.432,202.536 C237.570667,202.536 237.682666,202.570666 237.768,202.64 C237.853334,202.709334 237.917333,202.797333 237.96,202.904 L241.2,210.992 C241.274667,211.173334 241.342666,211.370666 241.404,211.584 C241.465334,211.797334 241.525333,212.018666 241.584,212.248 C241.632,212.018666 241.684,211.797334 241.74,211.584 C241.796,211.370666 241.861333,211.173334 241.936,210.992 L245.16,202.904 C245.197333,202.813333 245.261333,202.729334 245.352,202.652 C245.442667,202.574666 245.554666,202.536 245.688,202.536 L246.936,202.536 L242.264,214 L240.864,214 L236.192,202.536 Z M255.364,202.536 L255.364,203.8 L249.86,203.8 L249.86,207.608 L254.316,207.608 L254.316,208.824 L249.86,208.824 L249.86,212.736 L255.364,212.736 L255.364,214 L248.3,214 L248.3,202.536 L255.364,202.536 Z M259.048,212.696 L264.008,212.696 L264.008,214 L257.496,214 L257.496,202.536 L259.048,202.536 L259.048,212.696 Z M275.628,208.272 C275.628,209.130671 275.492001,209.918663 275.22,210.636 C274.947999,211.353337 274.564002,211.970664 274.068,212.488 C273.571997,213.005336 272.976003,213.406665 272.28,213.692 C271.583996,213.977335 270.814671,214.12 269.972,214.12 C269.129329,214.12 268.361337,213.977335 267.668,213.692 C266.974663,213.406665 266.380002,213.005336 265.884,212.488 C265.387997,211.970664 265.004001,211.353337 264.732,210.636 C264.459999,209.918663 264.324,209.130671 264.324,208.272 C264.324,207.413329 264.459999,206.625337 264.732,205.908 C265.004001,205.190663 265.387997,204.572003 265.884,204.052 C266.380002,203.531997 266.974663,203.128001 267.668,202.84 C268.361337,202.551999 269.129329,202.408 269.972,202.408 C270.814671,202.408 271.583996,202.551999 272.28,202.84 C272.976003,203.128001 273.571997,203.531997 274.068,204.052 C274.564002,204.572003 274.947999,205.190663 275.22,205.908 C275.492001,206.625337 275.628,207.413329 275.628,208.272 L275.628,208.272 Z M274.036,208.272 C274.036,207.567996 273.940001,206.936003 273.748,206.376 C273.555999,205.815997 273.284002,205.342669 272.932,204.956 C272.579998,204.569331 272.153336,204.272001 271.652,204.064 C271.150664,203.855999 270.59067,203.752 269.972,203.752 C269.358664,203.752 268.801336,203.855999 268.3,204.064 C267.798664,204.272001 267.370668,204.569331 267.016,204.956 C266.661332,205.342669 266.388001,205.815997 266.196,206.376 C266.003999,206.936003 265.908,207.567996 265.908,208.272 C265.908,208.976004 266.003999,209.606664 266.196,210.164 C266.388001,210.721336 266.661332,211.193331 267.016,211.58 C267.370668,211.966669 267.798664,212.262666 268.3,212.468 C268.801336,212.673334 269.358664,212.776 269.972,212.776 C270.59067,212.776 271.150664,212.673334 271.652,212.468 C272.153336,212.262666 272.579998,211.966669 272.932,211.58 C273.284002,211.193331 273.555999,210.721336 273.748,210.164 C273.940001,209.606664 274.036,208.976004 274.036,208.272 L274.036,208.272 Z M279.352,209.712 L279.352,214 L277.808,214 L277.808,202.536 L281.192,202.536 C281.917337,202.536 282.547997,202.619999 283.084,202.788 C283.620003,202.956001 284.063998,203.194665 284.416,203.504 C284.768002,203.813335 285.030666,204.186664 285.204,204.624 C285.377334,205.061336 285.464,205.549331 285.464,206.088 C285.464,206.621336 285.370668,207.109331 285.184,207.552 C284.997332,207.994669 284.724002,208.375998 284.364,208.696 C284.003998,209.016002 283.557336,209.265332 283.024,209.444 C282.490664,209.622668 281.880003,209.712 281.192,209.712 L279.352,209.712 Z M279.352,208.48 L281.192,208.48 C281.634669,208.48 282.025332,208.421334 282.364,208.304 C282.702668,208.186666 282.986665,208.022668 283.216,207.812 C283.445334,207.601332 283.618666,207.349335 283.736,207.056 C283.853334,206.762665 283.912,206.440002 283.912,206.088 C283.912,205.35733 283.686669,204.786669 283.236,204.376 C282.785331,203.965331 282.104005,203.76 281.192,203.76 L279.352,203.76 L279.352,208.48 Z M292.964,209.856 C293.038667,209.984001 293.104,210.118666 293.16,210.26 C293.216,210.401334 293.270666,210.543999 293.324,210.688 C293.377334,210.538666 293.433333,210.396001 293.492,210.26 C293.550667,210.123999 293.617333,209.986667 293.692,209.848 L297.572,202.8 C297.641334,202.677333 297.713333,202.602667 297.788,202.576 C297.862667,202.549333 297.969333,202.536 298.108,202.536 L299.252,202.536 L299.252,214 L297.892,214 L297.892,205.576 C297.892,205.463999 297.894667,205.344001 297.9,205.216 C297.905333,205.087999 297.913333,204.957334 297.924,204.824 L293.996,211.992 C293.862666,212.232001 293.676001,212.352 293.436,212.352 L293.212,212.352 C292.971999,212.352 292.785334,212.232001 292.652,211.992 L288.636,204.8 C288.652,204.938667 288.664,205.074666 288.672,205.208 C288.68,205.341334 288.684,205.463999 288.684,205.576 L288.684,214 L287.324,214 L287.324,202.536 L288.468,202.536 C288.606667,202.536 288.713333,202.549333 288.788,202.576 C288.862667,202.602667 288.934666,202.677333 289.004,202.8 L292.964,209.856 Z M309.008,202.536 L309.008,203.8 L303.504,203.8 L303.504,207.608 L307.96,207.608 L307.96,208.824 L303.504,208.824 L303.504,212.736 L309.008,212.736 L309.008,214 L301.944,214 L301.944,202.536 L309.008,202.536 Z M311.94,202.536 C312.078667,202.536 312.181333,202.553333 312.248,202.588 C312.314667,202.622667 312.390666,202.693333 312.476,202.8 L319.116,211.44 C319.1,211.301333 319.089333,211.166667 319.084,211.036 C319.078667,210.905333 319.076,210.778667 319.076,210.656 L319.076,202.536 L320.436,202.536 L320.436,214 L319.652,214 C319.529333,214 319.426667,213.978667 319.344,213.936 C319.261333,213.893333 319.18,213.821334 319.1,213.72 L312.468,205.088 C312.478667,205.221334 312.486667,205.351999 312.492,205.48 C312.497333,205.608001 312.5,205.725333 312.5,205.832 L312.5,214 L311.14,214 L311.14,202.536 L311.94,202.536 Z M330.944,202.536 L330.944,203.84 L327.24,203.84 L327.24,214 L325.688,214 L325.688,203.84 L321.968,203.84 L321.968,202.536 L330.944,202.536 Z" id="SANITIZED-WORDPRESS-" fill="#4A4A4A" sketch:type="MSShapeGroup"></path>
        </g>
    </g>
</svg>