<?xml version="1.0" encoding="UTF-8" standalone="no"?>
<svg width="341px" height="317px" viewBox="0 0 341 317" version="1.1" xmlns="http://www.w3.org/2000/svg" xmlns:xlink="http://www.w3.org/1999/xlink" xmlns:sketch="http://www.bohemiancoding.com/sketch/ns">
    <!-- Generator: Sketch 3.4.4 (17249) - http://www.bohemiancoding.com/sketch -->
    <title>Group</title>
    <desc>Created with Sketch.</desc>
    <defs></defs>
    <g id="Page-1" stroke="none" stroke-width="1" fill="none" fill-rule="evenodd" sketch:type="MSPage">
        <g id="Group" sketch:type="MSLayerGroup">
            <path d="M198.231243,2.18570625 L290.917101,315.525383 L292.282766,314.328187 L2.94937682,185.508662 L3.22690313,187.151443 L199.874434,2.63129086 L198.231243,2.18570625 L198.231243,2.18570625 Z M200.149099,1.61840476 L199.688936,0.0627501631 L198.505908,1.17282014 L1.85837722,185.692973 L0.760325611,186.723307 L2.13590353,187.335753 L291.469292,316.155278 L293.449935,317.037117 L292.834957,314.958081 L200.149099,1.61840476 L200.149099,1.61840476 Z" id="Shape" fill="#DE579B" sketch:type="MSShapeGroup"></path>
            <path d="M239.303099,238.464432 L254.072197,266.627082 L254.957805,265.162649 L225,265.162649 L225.880155,266.637336 L241.068863,238.474686 L239.303099,238.464432 L239.303099,238.464432 Z M241.074316,237.535568 L240.201074,235.870415 L239.308552,237.525314 L224.119845,265.687963 L223.324516,267.162649 L225,267.162649 L254.957805,267.162649 L256.611394,267.162649 L255.843414,265.698217 L241.074316,237.535568 L241.074316,237.535568 Z" id="Shape" fill="#50E3C2" sketch:type="MSShapeGroup"></path>
            <rect id="Rectangle-9" fill="#FFFFFF" sketch:type="MSShapeGroup" x="26" y="139" width="315" height="85"></rect>
            <path d="M36.063,168.895 L36.063,184 L33.36,184 L33.36,146.5025 L43.0325,146.5025 C47.431522,146.5025 50.7484055,147.465324 52.98325,149.391 C55.2180945,151.316676 56.3355,154.063815 56.3355,157.6325 C56.3355,159.275508 56.030753,160.785993 55.42125,162.164 C54.811747,163.542007 53.9328391,164.730078 52.7845,165.72825 C51.6361609,166.726422 50.2405082,167.503747 48.5975,168.06025 C46.9544918,168.616753 45.0995103,168.895 43.0325,168.895 L36.063,168.895 Z M36.063,166.722 L43.0325,166.722 C44.693175,166.722 46.1771601,166.492336 47.4845,166.033 C48.7918399,165.573664 49.9004121,164.937671 50.81025,164.125 C51.7200879,163.312329 52.4179142,162.353922 52.90375,161.24975 C53.3895858,160.145578 53.6325,158.93984 53.6325,157.6325 C53.6325,154.752819 52.7447589,152.535674 50.96925,150.981 C49.1937411,149.426326 46.5481842,148.649 43.0325,148.649 L36.063,148.649 L36.063,166.722 Z M62.7485,184 L62.7485,157.6325 L64.0735,157.6325 C64.3738348,157.6325 64.5902493,157.694333 64.72275,157.818 C64.8552507,157.941667 64.9303332,158.153665 64.948,158.454 L65.16,164.019 C66.0080042,161.881323 67.1386596,160.207423 68.552,158.99725 C69.9653404,157.787077 71.7054897,157.182 73.7725,157.182 C74.567504,157.182 75.3006633,157.265916 75.972,157.43375 C76.6433367,157.601584 77.2793303,157.844498 77.88,158.1625 L77.5355,159.9115 C77.4824997,160.194168 77.3058348,160.3355 77.0055,160.3355 C76.8994995,160.3355 76.7493343,160.300167 76.555,160.2295 C76.3606657,160.158833 76.1177515,160.079334 75.82625,159.991 C75.5347485,159.902666 75.1770021,159.823167 74.753,159.7525 C74.3289979,159.681833 73.8431694,159.6465 73.2955,159.6465 C71.2991567,159.6465 69.6605897,160.264827 68.37975,161.5015 C67.0989103,162.738173 66.061004,164.522488 65.266,166.8545 L65.266,184 L62.7485,184 Z M87.049,157.6325 L87.049,184 L84.5315,184 L84.5315,157.6325 L87.049,157.6325 Z M88.162,148.543 C88.162,148.861002 88.0957507,149.156915 87.96325,149.43075 C87.8307493,149.704585 87.6585011,149.947499 87.4465,150.1595 C87.2344989,150.371501 86.9871681,150.539333 86.7045,150.663 C86.4218319,150.786667 86.1215016,150.8485 85.8035,150.8485 C85.4854984,150.8485 85.1851681,150.786667 84.9025,150.663 C84.6198319,150.539333 84.3725011,150.371501 84.1605,150.1595 C83.9484989,149.947499 83.7806673,149.704585 83.657,149.43075 C83.5333327,149.156915 83.4715,148.861002 83.4715,148.543 C83.4715,148.224998 83.5333327,147.920251 83.657,147.62875 C83.7806673,147.337249 83.9484989,147.085501 84.1605,146.8735 C84.3725011,146.661499 84.6198319,146.493667 84.9025,146.37 C85.1851681,146.246333 85.4854984,146.1845 85.8035,146.1845 C86.1215016,146.1845 86.4218319,146.246333 86.7045,146.37 C86.9871681,146.493667 87.2344989,146.661499 87.4465,146.8735 C87.6585011,147.085501 87.8307493,147.337249 87.96325,147.62875 C88.0957507,147.920251 88.162,148.224998 88.162,148.543 L88.162,148.543 Z M96.377,184 L96.377,157.6325 L97.755,157.6325 C98.2143356,157.6325 98.479333,157.853331 98.55,158.295 L98.7885,162.27 C99.9898393,160.750659 101.389909,159.527255 102.98875,158.59975 C104.587591,157.672245 106.36749,157.2085 108.3285,157.2085 C109.777174,157.2085 111.053578,157.438164 112.15775,157.8975 C113.261922,158.356836 114.176163,159.019329 114.9005,159.885 C115.624837,160.750671 116.172498,161.792994 116.5435,163.012 C116.914502,164.231006 117.1,165.608992 117.1,167.146 L117.1,184 L114.5825,184 L114.5825,167.146 C114.5825,164.672654 114.017172,162.733757 112.8865,161.32925 C111.755828,159.924743 110.024512,159.2225 107.6925,159.2225 C105.961158,159.2225 104.353507,159.668579 102.8695,160.56075 C101.385493,161.452921 100.060506,162.676326 98.8945,164.231 L98.8945,184 L96.377,184 Z M132.258,184.424 C130.473658,184.424 129.082422,183.929338 128.08425,182.94 C127.086078,181.950662 126.587,180.42251 126.587,178.3555 L126.587,160.3355 L122.7975,160.3355 C122.603166,160.3355 122.444167,160.282501 122.3205,160.1765 C122.196833,160.070499 122.135,159.920334 122.135,159.726 L122.135,158.7455 L126.64,158.4275 L127.276,148.9935 C127.293667,148.834499 127.359916,148.693167 127.47475,148.5695 C127.589584,148.445833 127.744166,148.384 127.9385,148.384 L129.131,148.384 L129.131,158.454 L137.4255,158.454 L137.4255,160.3355 L129.131,160.3355 L129.131,178.223 C129.131,178.947337 129.223749,179.570081 129.40925,180.09125 C129.594751,180.612419 129.850915,181.040832 130.17775,181.3765 C130.504585,181.712168 130.888831,181.959499 131.3305,182.1185 C131.772169,182.277501 132.249164,182.357 132.7615,182.357 C133.397503,182.357 133.945164,182.264251 134.4045,182.07875 C134.863836,181.893249 135.261332,181.690084 135.597,181.46925 C135.932668,181.248416 136.206499,181.045251 136.4185,180.85975 C136.630501,180.674249 136.798333,180.5815 136.922,180.5815 C137.063334,180.5815 137.204666,180.669832 137.346,180.8465 L138.035,181.9595 C137.363663,182.701504 136.511255,183.297748 135.47775,183.74825 C134.444245,184.198752 133.371006,184.424 132.258,184.424 L132.258,184.424 Z M147.204,157.6325 L147.204,184 L144.6865,184 L144.6865,157.6325 L147.204,157.6325 Z M148.317,148.543 C148.317,148.861002 148.250751,149.156915 148.11825,149.43075 C147.985749,149.704585 147.813501,149.947499 147.6015,150.1595 C147.389499,150.371501 147.142168,150.539333 146.8595,150.663 C146.576832,150.786667 146.276502,150.8485 145.9585,150.8485 C145.640498,150.8485 145.340168,150.786667 145.0575,150.663 C144.774832,150.539333 144.527501,150.371501 144.3155,150.1595 C144.103499,149.947499 143.935667,149.704585 143.812,149.43075 C143.688333,149.156915 143.6265,148.861002 143.6265,148.543 C143.6265,148.224998 143.688333,147.920251 143.812,147.62875 C143.935667,147.337249 144.103499,147.085501 144.3155,146.8735 C144.527501,146.661499 144.774832,146.493667 145.0575,146.37 C145.340168,146.246333 145.640498,146.1845 145.9585,146.1845 C146.276502,146.1845 146.576832,146.246333 146.8595,146.37 C147.142168,146.493667 147.389499,146.661499 147.6015,146.8735 C147.813501,147.085501 147.985749,147.337249 148.11825,147.62875 C148.250751,147.920251 148.317,148.224998 148.317,148.543 L148.317,148.543 Z M156.532,184 L156.532,157.6325 L157.91,157.6325 C158.369336,157.6325 158.634333,157.853331 158.705,158.295 L158.9435,162.27 C160.144839,160.750659 161.544909,159.527255 163.14375,158.59975 C164.742591,157.672245 166.52249,157.2085 168.4835,157.2085 C169.932174,157.2085 171.208578,157.438164 172.31275,157.8975 C173.416922,158.356836 174.331163,159.019329 175.0555,159.885 C175.779837,160.750671 176.327498,161.792994 176.6985,163.012 C177.069502,164.231006 177.255,165.608992 177.255,167.146 L177.255,184 L174.7375,184 L174.7375,167.146 C174.7375,164.672654 174.172172,162.733757 173.0415,161.32925 C171.910828,159.924743 170.179512,159.2225 167.8475,159.2225 C166.116158,159.2225 164.508507,159.668579 163.0245,160.56075 C161.540493,161.452921 160.215506,162.676326 159.0495,164.231 L159.0495,184 L156.532,184 Z M193.897,157.182 C195.045339,157.182 196.109745,157.323332 197.09025,157.606 C198.070755,157.888668 198.949663,158.286164 199.727,158.7985 L206.4845,158.7985 L206.4845,159.673 C206.4845,160.114669 206.237169,160.353166 205.7425,160.3885 L201.741,160.68 C202.235669,161.351337 202.615499,162.106579 202.8805,162.94575 C203.145501,163.784921 203.278,164.681495 203.278,165.6355 C203.278,166.907506 203.048336,168.060245 202.589,169.09375 C202.129664,170.127255 201.489254,171.01058 200.66775,171.74375 C199.846246,172.47692 198.861339,173.046665 197.713,173.453 C196.564661,173.859335 195.292674,174.0625 193.897,174.0625 C192.377659,174.0625 190.999673,173.832836 189.763,173.3735 C189.020996,173.797502 188.438002,174.300997 188.014,174.884 C187.589998,175.467003 187.378,176.032331 187.378,176.58 C187.378,177.33967 187.642997,177.922665 188.173,178.329 C188.703003,178.735335 189.405246,179.031249 190.27975,179.21675 C191.154254,179.402251 192.152411,179.5215 193.27425,179.5745 C194.396089,179.6275 195.535578,179.684916 196.69275,179.74675 C197.849922,179.808584 198.989411,179.918999 200.11125,180.078 C201.233089,180.237001 202.231246,180.515248 203.10575,180.91275 C203.980254,181.310252 204.682497,181.866746 205.2125,182.58225 C205.742503,183.297754 206.0075,184.247327 206.0075,185.431 C206.0075,186.526339 205.733669,187.577495 205.186,188.5845 C204.638331,189.591505 203.847755,190.483663 202.81425,191.261 C201.780745,192.038337 200.530841,192.661081 199.0645,193.12925 C197.598159,193.597419 195.955176,193.8315 194.1355,193.8315 C192.280491,193.8315 190.655174,193.641585 189.2595,193.26175 C187.863826,192.881915 186.693421,192.369587 185.74825,191.72475 C184.803079,191.079913 184.092002,190.333504 183.615,189.4855 C183.137998,188.637496 182.8995,187.736505 182.8995,186.7825 C182.8995,185.386826 183.358829,184.185505 184.2775,183.1785 C185.196171,182.171495 186.459325,181.394169 188.067,180.8465 C187.183662,180.546165 186.481419,180.113336 185.96025,179.548 C185.439081,178.982664 185.1785,178.196505 185.1785,177.1895 C185.1785,176.818498 185.249166,176.429835 185.3905,176.0235 C185.531834,175.617165 185.743832,175.215252 186.0265,174.81775 C186.309168,174.420248 186.649248,174.044835 187.04675,173.6915 C187.444252,173.338165 187.907997,173.020168 188.438,172.7375 C187.18366,172.013163 186.207587,171.050339 185.50975,169.849 C184.811913,168.647661 184.463,167.243175 184.463,165.6355 C184.463,164.363494 184.688248,163.210755 185.13875,162.17725 C185.589252,161.143745 186.225246,160.256004 187.04675,159.514 C187.868254,158.771996 188.861994,158.197835 190.028,157.7915 C191.194006,157.385165 192.48366,157.182 193.897,157.182 L193.897,157.182 Z M203.6755,185.7755 C203.6755,184.945163 203.459085,184.278253 203.02625,183.77475 C202.593415,183.271247 202.014837,182.878168 201.2905,182.5955 C200.566163,182.312832 199.731421,182.114084 198.78625,181.99925 C197.841079,181.884416 196.851755,181.8005 195.81825,181.7475 C194.784745,181.6945 193.746839,181.6415 192.7045,181.5885 C191.662161,181.5355 190.690505,181.429501 189.7895,181.2705 C189.118163,181.535501 188.49542,181.840248 187.92125,182.18475 C187.34708,182.529252 186.856835,182.917915 186.4505,183.35075 C186.044165,183.783585 185.726168,184.260581 185.4965,184.78175 C185.266832,185.302919 185.152,185.872664 185.152,186.491 C185.152,187.268337 185.350748,187.988247 185.74825,188.65075 C186.145752,189.313253 186.728746,189.887414 187.49725,190.37325 C188.265754,190.859086 189.206494,191.243332 190.3195,191.526 C191.432506,191.808668 192.713326,191.95 194.162,191.95 C195.504673,191.95 196.754578,191.799835 197.91175,191.4995 C199.068922,191.199165 200.075912,190.775169 200.93275,190.2275 C201.789588,189.679831 202.460914,189.02617 202.94675,188.2665 C203.432586,187.50683 203.6755,186.676505 203.6755,185.7755 L203.6755,185.7755 Z M193.897,172.34 C195.027672,172.34 196.034662,172.176585 196.918,171.84975 C197.801338,171.522915 198.54333,171.068003 199.144,170.485 C199.74467,169.901997 200.199582,169.204171 200.50875,168.3915 C200.817918,167.578829 200.9725,166.677838 200.9725,165.6885 C200.9725,164.699162 200.813502,163.793754 200.4955,162.97225 C200.177498,162.150746 199.713753,161.448503 199.10425,160.8655 C198.494747,160.282497 197.752754,159.832002 196.87825,159.514 C196.003746,159.195998 195.010006,159.037 193.897,159.037 C192.783994,159.037 191.785838,159.195998 190.9025,159.514 C190.019162,159.832002 189.272753,160.282497 188.66325,160.8655 C188.053747,161.448503 187.590002,162.150746 187.272,162.97225 C186.953998,163.793754 186.795,164.699162 186.795,165.6885 C186.795,166.677838 186.953998,167.578829 187.272,168.3915 C187.590002,169.204171 188.053747,169.901997 188.66325,170.485 C189.272753,171.068003 190.019162,171.522915 190.9025,171.84975 C191.785838,172.176585 192.783994,172.34 193.897,172.34 L193.897,172.34 Z M226.9425,168.895 L226.9425,184 L224.2395,184 L224.2395,146.5025 L233.912,146.5025 C238.311022,146.5025 241.627905,147.465324 243.86275,149.391 C246.097595,151.316676 247.215,154.063815 247.215,157.6325 C247.215,159.275508 246.910253,160.785993 246.30075,162.164 C245.691247,163.542007 244.812339,164.730078 243.664,165.72825 C242.515661,166.726422 241.120008,167.503747 239.477,168.06025 C237.833992,168.616753 235.97901,168.895 233.912,168.895 L226.9425,168.895 Z M226.9425,166.722 L233.912,166.722 C235.572675,166.722 237.05666,166.492336 238.364,166.033 C239.67134,165.573664 240.779912,164.937671 241.68975,164.125 C242.599588,163.312329 243.297414,162.353922 243.78325,161.24975 C244.269086,160.145578 244.512,158.93984 244.512,157.6325 C244.512,154.752819 243.624259,152.535674 241.84875,150.981 C240.073241,149.426326 237.427684,148.649 233.912,148.649 L226.9425,148.649 L226.9425,166.722 Z M256.8875,145.4425 L256.8875,184 L254.37,184 L254.37,145.4425 L256.8875,145.4425 Z M283.043,184 C282.512997,184 282.186167,183.752669 282.0625,183.258 L281.6915,179.8925 C280.967163,180.59917 280.247254,181.235164 279.53175,181.8005 C278.816246,182.365836 278.069837,182.842831 277.2925,183.2315 C276.515163,183.620169 275.676005,183.916082 274.775,184.11925 C273.873995,184.322418 272.884672,184.424 271.807,184.424 C270.905995,184.424 270.031504,184.291501 269.1835,184.0265 C268.335496,183.761499 267.58467,183.355169 266.931,182.8075 C266.27733,182.259831 265.751752,181.557588 265.35425,180.70075 C264.956748,179.843912 264.758,178.814839 264.758,177.6135 C264.758,176.500494 265.075997,175.467005 265.712,174.513 C266.348003,173.558995 267.341743,172.72867 268.69325,172.022 C270.044757,171.31533 271.784906,170.750002 273.91375,170.326 C276.042594,169.901998 278.599818,169.654667 281.5855,169.584 L281.5855,166.828 C281.5855,164.389988 281.059922,162.512923 280.00875,161.19675 C278.957578,159.880577 277.39851,159.2225 275.3315,159.2225 C274.059494,159.2225 272.977421,159.399165 272.08525,159.7525 C271.193079,160.105835 270.437836,160.494498 269.8195,160.9185 C269.201164,161.342502 268.697669,161.731165 268.309,162.0845 C267.920331,162.437835 267.593501,162.6145 267.3285,162.6145 C266.975165,162.6145 266.710168,162.455502 266.5335,162.1375 L266.083,161.369 C267.461007,159.990993 268.909659,158.94867 270.429,158.242 C271.948341,157.53533 273.670824,157.182 275.5965,157.182 C277.00984,157.182 278.246495,157.407248 279.3065,157.85775 C280.366505,158.308252 281.245413,158.953079 281.94325,159.79225 C282.641087,160.631421 283.166665,161.647244 283.52,162.83975 C283.873335,164.032256 284.05,165.361659 284.05,166.828 L284.05,184 L283.043,184 Z M272.443,182.5955 C273.467672,182.5955 274.408412,182.485084 275.26525,182.26425 C276.122088,182.043416 276.91708,181.734252 277.65025,181.33675 C278.38342,180.939248 279.067997,180.466669 279.704,179.919 C280.340003,179.371331 280.967164,178.779503 281.5855,178.1435 L281.5855,171.28 C279.076821,171.350667 276.917092,171.540582 275.10625,171.84975 C273.295408,172.158918 271.802589,172.578497 270.62775,173.1085 C269.452911,173.638503 268.587253,174.27008 268.03075,175.00325 C267.474247,175.73642 267.196,176.571162 267.196,177.5075 C267.196,178.390838 267.341749,179.154913 267.63325,179.79975 C267.924751,180.444587 268.308998,180.974581 268.786,181.38975 C269.263002,181.804919 269.819497,182.109666 270.4555,182.304 C271.091503,182.498334 271.753997,182.5955 272.443,182.5955 L272.443,182.5955 Z M299.208,184.424 C297.423658,184.424 296.032422,183.929338 295.03425,182.94 C294.036078,181.950662 293.537,180.42251 293.537,178.3555 L293.537,160.3355 L289.7475,160.3355 C289.553166,160.3355 289.394167,160.282501 289.2705,160.1765 C289.146833,160.070499 289.085,159.920334 289.085,159.726 L289.085,158.7455 L293.59,158.4275 L294.226,148.9935 C294.243667,148.834499 294.309916,148.693167 294.42475,148.5695 C294.539584,148.445833 294.694166,148.384 294.8885,148.384 L296.081,148.384 L296.081,158.454 L304.3755,158.454 L304.3755,160.3355 L296.081,160.3355 L296.081,178.223 C296.081,178.947337 296.173749,179.570081 296.35925,180.09125 C296.544751,180.612419 296.800915,181.040832 297.12775,181.3765 C297.454585,181.712168 297.838831,181.959499 298.2805,182.1185 C298.722169,182.277501 299.199164,182.357 299.7115,182.357 C300.347503,182.357 300.895164,182.264251 301.3545,182.07875 C301.813836,181.893249 302.211332,181.690084 302.547,181.46925 C302.882668,181.248416 303.156499,181.045251 303.3685,180.85975 C303.580501,180.674249 303.748333,180.5815 303.872,180.5815 C304.013334,180.5815 304.154666,180.669832 304.296,180.8465 L304.985,181.9595 C304.313663,182.701504 303.461255,183.297748 302.42775,183.74825 C301.394245,184.198752 300.321006,184.424 299.208,184.424 L299.208,184.424 Z M320.832,157.2085 C322.316007,157.2085 323.689577,157.464664 324.95275,157.977 C326.215923,158.489336 327.311245,159.235745 328.23875,160.21625 C329.166255,161.196755 329.890581,162.402493 330.41175,163.8335 C330.932919,165.264507 331.1935,166.907491 331.1935,168.7625 C331.1935,169.151169 331.136084,169.416166 331.02125,169.5575 C330.906416,169.698834 330.725335,169.7695 330.478,169.7695 L311.4245,169.7695 L311.4245,170.273 C311.4245,172.251677 311.654164,173.991826 312.1135,175.4935 C312.572836,176.995174 313.226496,178.253912 314.0745,179.26975 C314.922504,180.285588 315.947161,181.049664 317.1485,181.562 C318.349839,182.074336 319.692493,182.3305 321.1765,182.3305 C322.501507,182.3305 323.649828,182.184751 324.6215,181.89325 C325.593172,181.601749 326.410247,181.274918 327.07275,180.91275 C327.735253,180.550582 328.260831,180.223751 328.6495,179.93225 C329.038169,179.640749 329.320832,179.495 329.4975,179.495 C329.727168,179.495 329.903833,179.583332 330.0275,179.76 L330.7165,180.608 C330.292498,181.138003 329.731587,181.632664 329.03375,182.092 C328.335913,182.551336 327.558588,182.944415 326.70175,183.27125 C325.844912,183.598085 324.926255,183.858666 323.94575,184.053 C322.965245,184.247334 321.980338,184.3445 320.991,184.3445 C319.188991,184.3445 317.546007,184.03092 316.062,183.40375 C314.577993,182.77658 313.306005,181.862339 312.246,180.661 C311.185995,179.459661 310.36892,177.988925 309.79475,176.24875 C309.22058,174.508575 308.9335,172.516678 308.9335,170.273 C308.9335,168.382657 309.202914,166.638091 309.74175,165.03925 C310.280586,163.440409 311.057912,162.062422 312.07375,160.90525 C313.089588,159.748078 314.335076,158.84267 315.81025,158.189 C317.285424,157.53533 318.959324,157.2085 320.832,157.2085 L320.832,157.2085 Z M320.8585,159.09 C319.49816,159.09 318.279172,159.301998 317.2015,159.726 C316.123828,160.150002 315.191921,160.759496 314.40575,161.5545 C313.619579,162.349504 312.983586,163.303494 312.49775,164.4165 C312.011914,165.529506 311.689501,166.774993 311.5305,168.153 L328.9145,168.153 C328.9145,166.73966 328.720169,165.472089 328.3315,164.35025 C327.942831,163.228411 327.39517,162.278837 326.6885,161.5015 C325.98183,160.724163 325.133838,160.127919 324.1445,159.71275 C323.155162,159.297581 322.059839,159.09 320.8585,159.09 L320.8585,159.09 Z" id="Printing-Plate" fill="#4A4A4A" sketch:type="MSShapeGroup"></path>
            <path d="M32.305,213 L32.305,202.2525 L35.7325,202.2525 C36.3925033,202.2525 36.9612476,202.317499 37.43875,202.4475 C37.9162524,202.577501 38.3087485,202.762499 38.61625,203.0025 C38.9237515,203.242501 39.1512493,203.536248 39.29875,203.88375 C39.4462507,204.231252 39.52,204.622498 39.52,205.0575 C39.52,205.322501 39.4787504,205.577499 39.39625,205.8225 C39.3137496,206.067501 39.1887508,206.294999 39.02125,206.505 C38.8537492,206.715001 38.6437513,206.902499 38.39125,207.0675 C38.1387487,207.232501 37.8425017,207.367499 37.5025,207.4725 C38.2875039,207.627501 38.879998,207.909998 39.28,208.32 C39.680002,208.730002 39.88,209.269997 39.88,209.94 C39.88,210.395002 39.7962508,210.809998 39.62875,211.185 C39.4612492,211.560002 39.2162516,211.882499 38.89375,212.1525 C38.5712484,212.422501 38.1762523,212.631249 37.70875,212.77875 C37.2412477,212.926251 36.707503,213 36.1075,213 L32.305,213 Z M33.76,208.1025 L33.76,211.845 L36.085,211.845 C36.5000021,211.845 36.8562485,211.7975 37.15375,211.7025 C37.4512515,211.6075 37.696249,211.473751 37.88875,211.30125 C38.081251,211.128749 38.2224996,210.923751 38.3125,210.68625 C38.4025005,210.448749 38.4475,210.187501 38.4475,209.9025 C38.4475,209.347497 38.251252,208.908752 37.85875,208.58625 C37.466248,208.263748 36.872504,208.1025 36.0775,208.1025 L33.76,208.1025 Z M33.76,207.0675 L35.68,207.0675 C36.0900021,207.0675 36.4449985,207.0225 36.745,206.9325 C37.0450015,206.8425 37.293749,206.717501 37.49125,206.5575 C37.688751,206.397499 37.8349995,206.203751 37.93,205.97625 C38.0250005,205.748749 38.0725,205.500001 38.0725,205.23 C38.0725,204.599997 37.8825019,204.137501 37.5025,203.8425 C37.1224981,203.547499 36.532504,203.4 35.7325,203.4 L33.76,203.4 L33.76,207.0675 Z M46.6875,211.845 C47.1325022,211.845 47.5299983,211.770001 47.88,211.62 C48.2300018,211.469999 48.5262488,211.260001 48.76875,210.99 C49.0112512,210.719999 49.1962494,210.397502 49.32375,210.0225 C49.4512506,209.647498 49.515,209.235002 49.515,208.785 L49.515,202.2525 L50.9625,202.2525 L50.9625,208.785 C50.9625,209.405003 50.863751,209.979997 50.66625,210.51 C50.468749,211.040003 50.1862518,211.498748 49.81875,211.88625 C49.4512482,212.273752 49.0025027,212.577499 48.4725,212.7975 C47.9424974,213.017501 47.3475033,213.1275 46.6875,213.1275 C46.0274967,213.1275 45.4325027,213.017501 44.9025,212.7975 C44.3724974,212.577499 43.9225019,212.273752 43.5525,211.88625 C43.1824982,211.498748 42.898751,211.040003 42.70125,210.51 C42.503749,209.979997 42.405,209.405003 42.405,208.785 L42.405,202.2525 L43.8525,202.2525 L43.8525,208.7775 C43.8525,209.227502 43.9162494,209.639998 44.04375,210.015 C44.1712506,210.390002 44.3562488,210.712499 44.59875,210.9825 C44.8412512,211.252501 45.1387482,211.463749 45.49125,211.61625 C45.8437518,211.768751 46.2424978,211.845 46.6875,211.845 L46.6875,211.845 Z M55.685,213 L54.23,213 L54.23,202.2525 L55.685,202.2525 L55.685,213 Z M60.52,211.7775 L65.17,211.7775 L65.17,213 L59.065,213 L59.065,202.2525 L60.52,202.2525 L60.52,211.7775 Z M76.59,207.63 C76.59,208.435004 76.4625013,209.167497 76.2075,209.8275 C75.9524987,210.487503 75.5925023,211.052498 75.1275,211.5225 C74.6624977,211.992502 74.1050033,212.356249 73.455,212.61375 C72.8049967,212.871251 72.085004,213 71.295,213 L67.275,213 L67.275,202.2525 L71.295,202.2525 C72.085004,202.2525 72.8049967,202.381249 73.455,202.63875 C74.1050033,202.896251 74.6624977,203.261248 75.1275,203.73375 C75.5925023,204.206252 75.9524987,204.772497 76.2075,205.4325 C76.4625013,206.092503 76.59,206.824996 76.59,207.63 L76.59,207.63 Z M75.0975,207.63 C75.0975,206.969997 75.0075009,206.380003 74.8275,205.86 C74.6474991,205.339997 74.3925017,204.900002 74.0625,204.54 C73.7324984,204.179998 73.3325023,203.905001 72.8625,203.715 C72.3924976,203.524999 71.8700029,203.43 71.295,203.43 L68.7375,203.43 L68.7375,211.8225 L71.295,211.8225 C71.8700029,211.8225 72.3924976,211.727501 72.8625,211.5375 C73.3325023,211.347499 73.7324984,211.073752 74.0625,210.71625 C74.3925017,210.358748 74.6474991,209.920003 74.8275,209.4 C75.0075009,208.879997 75.0975,208.290003 75.0975,207.63 L75.0975,207.63 Z M87.7525,209.115 C87.8225004,209.235001 87.8837497,209.361249 87.93625,209.49375 C87.9887503,209.626251 88.0399997,209.759999 88.09,209.895 C88.1400003,209.754999 88.1924997,209.621251 88.2475,209.49375 C88.3025003,209.366249 88.3649997,209.237501 88.435,209.1075 L92.0725,202.5 C92.1375003,202.384999 92.2049997,202.315 92.275,202.29 C92.3450003,202.265 92.4449994,202.2525 92.575,202.2525 L93.6475,202.2525 L93.6475,213 L92.3725,213 L92.3725,205.1025 C92.3725,204.997499 92.375,204.885001 92.38,204.765 C92.385,204.644999 92.3925,204.522501 92.4025,204.3975 L88.72,211.1175 C88.5949994,211.342501 88.4200011,211.455 88.195,211.455 L87.985,211.455 C87.7599989,211.455 87.5850006,211.342501 87.46,211.1175 L83.695,204.375 C83.7100001,204.505001 83.72125,204.632499 83.72875,204.7575 C83.73625,204.882501 83.74,204.997499 83.74,205.1025 L83.74,213 L82.465,213 L82.465,202.2525 L83.5375,202.2525 C83.6675007,202.2525 83.7674997,202.265 83.8375,202.29 C83.9075003,202.315 83.9749997,202.384999 84.04,202.5 L87.7525,209.115 Z M105.6075,213 L104.4825,213 C104.352499,213 104.2475,212.9675 104.1675,212.9025 C104.0875,212.8375 104.0275,212.755 103.9875,212.655 L102.9825,210.06 L98.16,210.06 L97.155,212.655 C97.1199998,212.745 97.0600004,212.825 96.975,212.895 C96.8899996,212.965 96.7850006,213 96.66,213 L95.535,213 L99.8325,202.2525 L101.31,202.2525 L105.6075,213 Z M98.565,209.01 L102.5775,209.01 L100.89,204.6375 C100.779999,204.367499 100.672501,204.030002 100.5675,203.625 C100.5125,203.830001 100.45875,204.018749 100.40625,204.19125 C100.35375,204.363751 100.3025,204.514999 100.2525,204.645 L98.565,209.01 Z M108.215,202.2525 C108.345001,202.2525 108.44125,202.26875 108.50375,202.30125 C108.56625,202.33375 108.6375,202.4 108.7175,202.5 L114.9425,210.6 C114.9275,210.469999 114.9175,210.343751 114.9125,210.22125 C114.9075,210.098749 114.905,209.980001 114.905,209.865 L114.905,202.2525 L116.18,202.2525 L116.18,213 L115.445,213 C115.329999,213 115.23375,212.98 115.15625,212.94 C115.07875,212.9 115.0025,212.8325 114.9275,212.7375 L108.71,204.645 C108.72,204.770001 108.7275,204.892499 108.7325,205.0125 C108.7375,205.132501 108.74,205.2425 108.74,205.3425 L108.74,213 L107.465,213 L107.465,202.2525 L108.215,202.2525 Z M128.1475,213 L127.0225,213 C126.892499,213 126.7875,212.9675 126.7075,212.9025 C126.6275,212.8375 126.5675,212.755 126.5275,212.655 L125.5225,210.06 L120.7,210.06 L119.695,212.655 C119.66,212.745 119.6,212.825 119.515,212.895 C119.43,212.965 119.325001,213 119.2,213 L118.075,213 L122.3725,202.2525 L123.85,202.2525 L128.1475,213 Z M121.105,209.01 L125.1175,209.01 L123.43,204.6375 C123.319999,204.367499 123.212501,204.030002 123.1075,203.625 C123.0525,203.830001 122.99875,204.018749 122.94625,204.19125 C122.89375,204.363751 122.8425,204.514999 122.7925,204.645 L121.105,209.01 Z M134.4825,211.9425 C134.772501,211.9425 135.038749,211.92875 135.28125,211.90125 C135.523751,211.87375 135.752499,211.8325 135.9675,211.7775 C136.182501,211.7225 136.384999,211.65625 136.575,211.57875 C136.765001,211.50125 136.954999,211.4125 137.145,211.3125 L137.145,208.9425 L135.48,208.9425 C135.385,208.9425 135.30875,208.915 135.25125,208.86 C135.19375,208.805 135.165,208.7375 135.165,208.6575 L135.165,207.8325 L138.465,207.8325 L138.465,211.9575 C138.194999,212.152501 137.913751,212.322499 137.62125,212.4675 C137.328749,212.612501 137.016252,212.73375 136.68375,212.83125 C136.351248,212.92875 135.995002,213.00125 135.615,213.04875 C135.234998,213.09625 134.822502,213.12 134.3775,213.12 C133.597496,213.12 132.882503,212.986251 132.2325,212.71875 C131.582497,212.451249 131.022502,212.076252 130.5525,211.59375 C130.082498,211.111248 129.716251,210.532503 129.45375,209.8575 C129.191249,209.182497 129.06,208.440004 129.06,207.63 C129.06,206.809996 129.188749,206.062503 129.44625,205.3875 C129.703751,204.712497 130.071248,204.133752 130.54875,203.65125 C131.026252,203.168748 131.603747,202.795001 132.28125,202.53 C132.958753,202.264999 133.717496,202.1325 134.5575,202.1325 C134.982502,202.1325 135.377498,202.16375 135.7425,202.22625 C136.107502,202.28875 136.446248,202.378749 136.75875,202.49625 C137.071252,202.613751 137.359999,202.756249 137.625,202.92375 C137.890001,203.091251 138.137499,203.279999 138.3675,203.49 L137.955,204.15 C137.87,204.285001 137.760001,204.3525 137.625,204.3525 C137.545,204.3525 137.4575,204.325 137.3625,204.27 C137.237499,204.2 137.097501,204.115001 136.9425,204.015 C136.787499,203.914999 136.598751,203.81875 136.37625,203.72625 C136.153749,203.63375 135.891252,203.555 135.58875,203.49 C135.286248,203.425 134.927502,203.3925 134.5125,203.3925 C133.907497,203.3925 133.360002,203.491249 132.87,203.68875 C132.379998,203.886251 131.962502,204.168748 131.6175,204.53625 C131.272498,204.903752 131.007501,205.348747 130.8225,205.87125 C130.637499,206.393753 130.545,206.979997 130.545,207.63 C130.545,208.310003 130.641249,208.916247 130.83375,209.44875 C131.026251,209.981253 131.297498,210.432498 131.6475,210.8025 C131.997502,211.172502 132.412498,211.454999 132.8925,211.65 C133.372502,211.845001 133.902497,211.9425 134.4825,211.9425 L134.4825,211.9425 Z M147.8225,202.2525 L147.8225,203.4375 L142.6625,203.4375 L142.6625,207.0075 L146.84,207.0075 L146.84,208.1475 L142.6625,208.1475 L142.6625,211.815 L147.8225,211.815 L147.8225,213 L141.2,213 L141.2,202.2525 L147.8225,202.2525 Z M159.2575,213 L158.1325,213 C158.002499,213 157.8975,212.9675 157.8175,212.9025 C157.7375,212.8375 157.6775,212.755 157.6375,212.655 L156.6325,210.06 L151.81,210.06 L150.805,212.655 C150.77,212.745 150.71,212.825 150.625,212.895 C150.54,212.965 150.435001,213 150.31,213 L149.185,213 L153.4825,202.2525 L154.96,202.2525 L159.2575,213 Z M152.215,209.01 L156.2275,209.01 L154.54,204.6375 C154.429999,204.367499 154.322501,204.030002 154.2175,203.625 C154.1625,203.830001 154.10875,204.018749 154.05625,204.19125 C154.00375,204.363751 153.9525,204.514999 153.9025,204.645 L152.215,209.01 Z M161.115,213 L161.115,202.2525 L164.5425,202.2525 C165.202503,202.2525 165.771248,202.317499 166.24875,202.4475 C166.726252,202.577501 167.118748,202.762499 167.42625,203.0025 C167.733752,203.242501 167.961249,203.536248 168.10875,203.88375 C168.256251,204.231252 168.33,204.622498 168.33,205.0575 C168.33,205.322501 168.28875,205.577499 168.20625,205.8225 C168.12375,206.067501 167.998751,206.294999 167.83125,206.505 C167.663749,206.715001 167.453751,206.902499 167.20125,207.0675 C166.948749,207.232501 166.652502,207.367499 166.3125,207.4725 C167.097504,207.627501 167.689998,207.909998 168.09,208.32 C168.490002,208.730002 168.69,209.269997 168.69,209.94 C168.69,210.395002 168.606251,210.809998 168.43875,211.185 C168.271249,211.560002 168.026252,211.882499 167.70375,212.1525 C167.381248,212.422501 166.986252,212.631249 166.51875,212.77875 C166.051248,212.926251 165.517503,213 164.9175,213 L161.115,213 Z M162.57,208.1025 L162.57,211.845 L164.895,211.845 C165.310002,211.845 165.666249,211.7975 165.96375,211.7025 C166.261251,211.6075 166.506249,211.473751 166.69875,211.30125 C166.891251,211.128749 167.0325,210.923751 167.1225,210.68625 C167.2125,210.448749 167.2575,210.187501 167.2575,209.9025 C167.2575,209.347497 167.061252,208.908752 166.66875,208.58625 C166.276248,208.263748 165.682504,208.1025 164.8875,208.1025 L162.57,208.1025 Z M162.57,207.0675 L164.49,207.0675 C164.900002,207.0675 165.254999,207.0225 165.555,206.9325 C165.855002,206.8425 166.103749,206.717501 166.30125,206.5575 C166.498751,206.397499 166.645,206.203751 166.74,205.97625 C166.835,205.748749 166.8825,205.500001 166.8825,205.23 C166.8825,204.599997 166.692502,204.137501 166.3125,203.8425 C165.932498,203.547499 165.342504,203.4 164.5425,203.4 L162.57,203.4 L162.57,207.0675 Z M172.775,211.7775 L177.425,211.7775 L177.425,213 L171.32,213 L171.32,202.2525 L172.775,202.2525 L172.775,211.7775 Z M186.1525,202.2525 L186.1525,203.4375 L180.9925,203.4375 L180.9925,207.0075 L185.17,207.0075 L185.17,208.1475 L180.9925,208.1475 L180.9925,211.815 L186.1525,211.815 L186.1525,213 L179.53,213 L179.53,202.2525 L186.1525,202.2525 Z M190.94,202.2525 L192.1475,202.2525 C192.277501,202.2525 192.385,202.285 192.47,202.35 C192.555,202.415 192.6125,202.4975 192.6425,202.5975 L194.8625,210.0675 C194.9025,210.202501 194.93875,210.347499 194.97125,210.5025 C195.00375,210.657501 195.035,210.819999 195.065,210.99 C195.1,210.819999 195.135,210.656251 195.17,210.49875 C195.205,210.341249 195.245,210.197501 195.29,210.0675 L197.8175,202.5975 C197.8475,202.5125 197.90625,202.43375 197.99375,202.36125 C198.08125,202.28875 198.187499,202.2525 198.3125,202.2525 L198.7325,202.2525 C198.862501,202.2525 198.96875,202.285 199.05125,202.35 C199.13375,202.415 199.1925,202.4975 199.2275,202.5975 L201.74,210.0675 C201.83,210.327501 201.91,210.624998 201.98,210.96 C202.01,210.794999 202.0375,210.637501 202.0625,210.4875 C202.0875,210.337499 202.12,210.197501 202.16,210.0675 L204.3875,202.5975 C204.4125,202.5075 204.46875,202.4275 204.55625,202.3575 C204.64375,202.2875 204.749999,202.2525 204.875,202.2525 L206.0075,202.2525 L202.655,213 L201.35,213 L198.6275,204.8025 C198.5725,204.647499 198.5225,204.467501 198.4775,204.2625 C198.4525,204.362501 198.42875,204.45875 198.40625,204.55125 C198.38375,204.64375 198.36,204.7275 198.335,204.8025 L195.5975,213 L194.2925,213 L190.94,202.2525 Z M217.9075,207.63 C217.9075,208.435004 217.780001,209.173747 217.525,209.84625 C217.269999,210.518753 216.910002,211.097498 216.445,211.5825 C215.979998,212.067502 215.421253,212.443749 214.76875,212.71125 C214.116247,212.978751 213.395004,213.1125 212.605,213.1125 C211.814996,213.1125 211.095003,212.978751 210.445,212.71125 C209.794997,212.443749 209.237502,212.067502 208.7725,211.5825 C208.307498,211.097498 207.947501,210.518753 207.6925,209.84625 C207.437499,209.173747 207.31,208.435004 207.31,207.63 C207.31,206.824996 207.437499,206.086253 207.6925,205.41375 C207.947501,204.741247 208.307498,204.161252 208.7725,203.67375 C209.237502,203.186248 209.794997,202.807501 210.445,202.5375 C211.095003,202.267499 211.814996,202.1325 212.605,202.1325 C213.395004,202.1325 214.116247,202.267499 214.76875,202.5375 C215.421253,202.807501 215.979998,203.186248 216.445,203.67375 C216.910002,204.161252 217.269999,204.741247 217.525,205.41375 C217.780001,206.086253 217.9075,206.824996 217.9075,207.63 L217.9075,207.63 Z M216.415,207.63 C216.415,206.969997 216.325001,206.377503 216.145,205.8525 C215.964999,205.327497 215.710002,204.883752 215.38,204.52125 C215.049998,204.158748 214.650002,203.880001 214.18,203.685 C213.709998,203.489999 213.185003,203.3925 212.605,203.3925 C212.029997,203.3925 211.507502,203.489999 211.0375,203.685 C210.567498,203.880001 210.166252,204.158748 209.83375,204.52125 C209.501248,204.883752 209.245001,205.327497 209.065,205.8525 C208.884999,206.377503 208.795,206.969997 208.795,207.63 C208.795,208.290003 208.884999,208.881247 209.065,209.40375 C209.245001,209.926253 209.501248,210.368748 209.83375,210.73125 C210.166252,211.093752 210.567498,211.371249 211.0375,211.56375 C211.507502,211.756251 212.029997,211.8525 212.605,211.8525 C213.185003,211.8525 213.709998,211.756251 214.18,211.56375 C214.650002,211.371249 215.049998,211.093752 215.38,210.73125 C215.710002,210.368748 215.964999,209.926253 216.145,209.40375 C216.325001,208.881247 216.415,208.290003 216.415,207.63 L216.415,207.63 Z M221.9925,208.515 L221.9925,213 L220.545,213 L220.545,202.2525 L223.5825,202.2525 C224.262503,202.2525 224.849998,202.321249 225.345,202.45875 C225.840002,202.596251 226.248748,202.794999 226.57125,203.055 C226.893752,203.315001 227.132499,203.628748 227.2875,203.99625 C227.442501,204.363752 227.52,204.774998 227.52,205.23 C227.52,205.610002 227.460001,205.964998 227.34,206.295 C227.219999,206.625002 227.046251,206.921249 226.81875,207.18375 C226.591249,207.446251 226.313752,207.669999 225.98625,207.855 C225.658748,208.040001 225.287502,208.18 224.8725,208.275 C225.052501,208.380001 225.212499,208.532499 225.3525,208.7325 L228.4875,213 L227.1975,213 C226.932499,213 226.737501,212.897501 226.6125,212.6925 L223.8225,208.8525 C223.7375,208.732499 223.645001,208.64625 223.545,208.59375 C223.445,208.54125 223.295001,208.515 223.095,208.515 L221.9925,208.515 Z M221.9925,207.4575 L223.515,207.4575 C223.940002,207.4575 224.313748,207.406251 224.63625,207.30375 C224.958752,207.201249 225.228749,207.056251 225.44625,206.86875 C225.663751,206.681249 225.827499,206.457501 225.9375,206.1975 C226.047501,205.937499 226.1025,205.650002 226.1025,205.335 C226.1025,204.694997 225.891252,204.212502 225.46875,203.8875 C225.046248,203.562498 224.417504,203.4 223.5825,203.4 L221.9925,203.4 L221.9925,207.4575 Z M239.87,207.63 C239.87,208.435004 239.742501,209.167497 239.4875,209.8275 C239.232499,210.487503 238.872502,211.052498 238.4075,211.5225 C237.942498,211.992502 237.385003,212.356249 236.735,212.61375 C236.084997,212.871251 235.365004,213 234.575,213 L230.555,213 L230.555,202.2525 L234.575,202.2525 C235.365004,202.2525 236.084997,202.381249 236.735,202.63875 C237.385003,202.896251 237.942498,203.261248 238.4075,203.73375 C238.872502,204.206252 239.232499,204.772497 239.4875,205.4325 C239.742501,206.092503 239.87,206.824996 239.87,207.63 L239.87,207.63 Z M238.3775,207.63 C238.3775,206.969997 238.287501,206.380003 238.1075,205.86 C237.927499,205.339997 237.672502,204.900002 237.3425,204.54 C237.012498,204.179998 236.612502,203.905001 236.1425,203.715 C235.672498,203.524999 235.150003,203.43 234.575,203.43 L232.0175,203.43 L232.0175,211.8225 L234.575,211.8225 C235.150003,211.8225 235.672498,211.727501 236.1425,211.5375 C236.612502,211.347499 237.012498,211.073752 237.3425,210.71625 C237.672502,210.358748 237.927499,209.920003 238.1075,209.4 C238.287501,208.879997 238.3775,208.290003 238.3775,207.63 L238.3775,207.63 Z M243.9475,208.98 L243.9475,213 L242.5,213 L242.5,202.2525 L245.6725,202.2525 C246.352503,202.2525 246.943747,202.331249 247.44625,202.48875 C247.948753,202.646251 248.364998,202.869999 248.695,203.16 C249.025002,203.450001 249.271249,203.799998 249.43375,204.21 C249.596251,204.620002 249.6775,205.077497 249.6775,205.5825 C249.6775,206.082503 249.590001,206.539998 249.415,206.955 C249.239999,207.370002 248.983752,207.727498 248.64625,208.0275 C248.308748,208.327501 247.890003,208.561249 247.39,208.72875 C246.889998,208.896251 246.317503,208.98 245.6725,208.98 L243.9475,208.98 Z M243.9475,207.825 L245.6725,207.825 C246.087502,207.825 246.453748,207.770001 246.77125,207.66 C247.088752,207.549999 247.354999,207.396251 247.57,207.19875 C247.785001,207.001249 247.947499,206.765001 248.0575,206.49 C248.167501,206.214999 248.2225,205.912502 248.2225,205.5825 C248.2225,204.897497 248.011252,204.362502 247.58875,203.9775 C247.166248,203.592498 246.527504,203.4 245.6725,203.4 L243.9475,203.4 L243.9475,207.825 Z M253.6125,208.515 L253.6125,213 L252.165,213 L252.165,202.2525 L255.2025,202.2525 C255.882503,202.2525 256.469998,202.321249 256.965,202.45875 C257.460002,202.596251 257.868748,202.794999 258.19125,203.055 C258.513752,203.315001 258.752499,203.628748 258.9075,203.99625 C259.062501,204.363752 259.14,204.774998 259.14,205.23 C259.14,205.610002 259.080001,205.964998 258.96,206.295 C258.839999,206.625002 258.666251,206.921249 258.43875,207.18375 C258.211249,207.446251 257.933752,207.669999 257.60625,207.855 C257.278748,208.040001 256.907502,208.18 256.4925,208.275 C256.672501,208.380001 256.832499,208.532499 256.9725,208.7325 L260.1075,213 L258.8175,213 C258.552499,213 258.357501,212.897501 258.2325,212.6925 L255.4425,208.8525 C255.3575,208.732499 255.265001,208.64625 255.165,208.59375 C255.065,208.54125 254.915001,208.515 254.715,208.515 L253.6125,208.515 Z M253.6125,207.4575 L255.135,207.4575 C255.560002,207.4575 255.933748,207.406251 256.25625,207.30375 C256.578752,207.201249 256.848749,207.056251 257.06625,206.86875 C257.283751,206.681249 257.447499,206.457501 257.5575,206.1975 C257.667501,205.937499 257.7225,205.650002 257.7225,205.335 C257.7225,204.694997 257.511252,204.212502 257.08875,203.8875 C256.666248,203.562498 256.037504,203.4 255.2025,203.4 L253.6125,203.4 L253.6125,207.4575 Z M268.7975,202.2525 L268.7975,203.4375 L263.6375,203.4375 L263.6375,207.0075 L267.815,207.0075 L267.815,208.1475 L263.6375,208.1475 L263.6375,211.815 L268.7975,211.815 L268.7975,213 L262.175,213 L262.175,202.2525 L268.7975,202.2525 Z M276.895,203.9325 C276.85,204.0075 276.8025,204.06375 276.7525,204.10125 C276.7025,204.13875 276.6375,204.1575 276.5575,204.1575 C276.4725,204.1575 276.373751,204.115 276.26125,204.03 C276.148749,203.945 276.006251,203.851251 275.83375,203.74875 C275.661249,203.646249 275.453751,203.5525 275.21125,203.4675 C274.968749,203.3825 274.675002,203.34 274.33,203.34 C274.004998,203.34 273.717501,203.38375 273.4675,203.47125 C273.217499,203.55875 273.008751,203.677499 272.84125,203.8275 C272.673749,203.977501 272.5475,204.153749 272.4625,204.35625 C272.3775,204.558751 272.335,204.777499 272.335,205.0125 C272.335,205.312501 272.408749,205.561249 272.55625,205.75875 C272.703751,205.956251 272.898749,206.124999 273.14125,206.265 C273.383751,206.405001 273.658748,206.526249 273.96625,206.62875 C274.273752,206.731251 274.588748,206.837499 274.91125,206.9475 C275.233752,207.057501 275.548748,207.181249 275.85625,207.31875 C276.163752,207.456251 276.438749,207.629999 276.68125,207.84 C276.923751,208.050001 277.118749,208.307498 277.26625,208.6125 C277.413751,208.917502 277.4875,209.292498 277.4875,209.7375 C277.4875,210.207502 277.407501,210.648748 277.2475,211.06125 C277.087499,211.473752 276.853752,211.832498 276.54625,212.1375 C276.238748,212.442502 275.861252,212.682499 275.41375,212.8575 C274.966248,213.032501 274.457503,213.12 273.8875,213.12 C273.192497,213.12 272.558753,212.993751 271.98625,212.74125 C271.413747,212.488749 270.925002,212.147502 270.52,211.7175 L270.94,211.0275 C270.98,210.9725 271.02875,210.92625 271.08625,210.88875 C271.14375,210.85125 271.2075,210.8325 271.2775,210.8325 C271.382501,210.8325 271.502499,210.888749 271.6375,211.00125 C271.772501,211.113751 271.941249,211.237499 272.14375,211.3725 C272.346251,211.507501 272.591249,211.631249 272.87875,211.74375 C273.166251,211.856251 273.517498,211.9125 273.9325,211.9125 C274.277502,211.9125 274.584999,211.865 274.855,211.77 C275.125001,211.675 275.353749,211.541251 275.54125,211.36875 C275.728751,211.196249 275.8725,210.990001 275.9725,210.75 C276.072501,210.509999 276.1225,210.242501 276.1225,209.9475 C276.1225,209.622498 276.048751,209.356251 275.90125,209.14875 C275.753749,208.941249 275.560001,208.767501 275.32,208.6275 C275.079999,208.487499 274.806252,208.36875 274.49875,208.27125 C274.191248,208.17375 273.876252,208.073751 273.55375,207.97125 C273.231248,207.868749 272.916252,207.750001 272.60875,207.615 C272.301248,207.479999 272.027501,207.305001 271.7875,207.09 C271.547499,206.874999 271.353751,206.606252 271.20625,206.28375 C271.058749,205.961248 270.985,205.562502 270.985,205.0875 C270.985,204.707498 271.058749,204.340002 271.20625,203.985 C271.353751,203.629998 271.567499,203.315001 271.8475,203.04 C272.127501,202.764999 272.473748,202.545001 272.88625,202.38 C273.298752,202.214999 273.772497,202.1325 274.3075,202.1325 C274.907503,202.1325 275.454998,202.227499 275.95,202.4175 C276.445002,202.607501 276.877498,202.882498 277.2475,203.2425 L276.895,203.9325 Z M285.345,203.9325 C285.3,204.0075 285.2525,204.06375 285.2025,204.10125 C285.1525,204.13875 285.0875,204.1575 285.0075,204.1575 C284.9225,204.1575 284.823751,204.115 284.71125,204.03 C284.598749,203.945 284.456251,203.851251 284.28375,203.74875 C284.111249,203.646249 283.903751,203.5525 283.66125,203.4675 C283.418749,203.3825 283.125002,203.34 282.78,203.34 C282.454998,203.34 282.167501,203.38375 281.9175,203.47125 C281.667499,203.55875 281.458751,203.677499 281.29125,203.8275 C281.123749,203.977501 280.9975,204.153749 280.9125,204.35625 C280.8275,204.558751 280.785,204.777499 280.785,205.0125 C280.785,205.312501 280.858749,205.561249 281.00625,205.75875 C281.153751,205.956251 281.348749,206.124999 281.59125,206.265 C281.833751,206.405001 282.108748,206.526249 282.41625,206.62875 C282.723752,206.731251 283.038748,206.837499 283.36125,206.9475 C283.683752,207.057501 283.998748,207.181249 284.30625,207.31875 C284.613752,207.456251 284.888749,207.629999 285.13125,207.84 C285.373751,208.050001 285.568749,208.307498 285.71625,208.6125 C285.863751,208.917502 285.9375,209.292498 285.9375,209.7375 C285.9375,210.207502 285.857501,210.648748 285.6975,211.06125 C285.537499,211.473752 285.303752,211.832498 284.99625,212.1375 C284.688748,212.442502 284.311252,212.682499 283.86375,212.8575 C283.416248,213.032501 282.907503,213.12 282.3375,213.12 C281.642497,213.12 281.008753,212.993751 280.43625,212.74125 C279.863747,212.488749 279.375002,212.147502 278.97,211.7175 L279.39,211.0275 C279.43,210.9725 279.47875,210.92625 279.53625,210.88875 C279.59375,210.85125 279.6575,210.8325 279.7275,210.8325 C279.832501,210.8325 279.952499,210.888749 280.0875,211.00125 C280.222501,211.113751 280.391249,211.237499 280.59375,211.3725 C280.796251,211.507501 281.041249,211.631249 281.32875,211.74375 C281.616251,211.856251 281.967498,211.9125 282.3825,211.9125 C282.727502,211.9125 283.034999,211.865 283.305,211.77 C283.575001,211.675 283.803749,211.541251 283.99125,211.36875 C284.178751,211.196249 284.3225,210.990001 284.4225,210.75 C284.522501,210.509999 284.5725,210.242501 284.5725,209.9475 C284.5725,209.622498 284.498751,209.356251 284.35125,209.14875 C284.203749,208.941249 284.010001,208.767501 283.77,208.6275 C283.529999,208.487499 283.256252,208.36875 282.94875,208.27125 C282.641248,208.17375 282.326252,208.073751 282.00375,207.97125 C281.681248,207.868749 281.366252,207.750001 281.05875,207.615 C280.751248,207.479999 280.477501,207.305001 280.2375,207.09 C279.997499,206.874999 279.803751,206.606252 279.65625,206.28375 C279.508749,205.961248 279.435,205.562502 279.435,205.0875 C279.435,204.707498 279.508749,204.340002 279.65625,203.985 C279.803751,203.629998 280.017499,203.315001 280.2975,203.04 C280.577501,202.764999 280.923748,202.545001 281.33625,202.38 C281.748752,202.214999 282.222497,202.1325 282.7575,202.1325 C283.357503,202.1325 283.904998,202.227499 284.4,202.4175 C284.895002,202.607501 285.327498,202.882498 285.6975,203.2425 L285.345,203.9325 Z M300.5275,213 L299.4025,213 C299.272499,213 299.1675,212.9675 299.0875,212.9025 C299.0075,212.8375 298.9475,212.755 298.9075,212.655 L297.9025,210.06 L293.08,210.06 L292.075,212.655 C292.04,212.745 291.98,212.825 291.895,212.895 C291.81,212.965 291.705001,213 291.58,213 L290.455,213 L294.7525,202.2525 L296.23,202.2525 L300.5275,213 Z M293.485,209.01 L297.4975,209.01 L295.81,204.6375 C295.699999,204.367499 295.592501,204.030002 295.4875,203.625 C295.4325,203.830001 295.37875,204.018749 295.32625,204.19125 C295.27375,204.363751 295.2225,204.514999 295.1725,204.645 L293.485,209.01 Z M303.9825,208.98 L303.9825,213 L302.535,213 L302.535,202.2525 L305.7075,202.2525 C306.387503,202.2525 306.978747,202.331249 307.48125,202.48875 C307.983753,202.646251 308.399998,202.869999 308.73,203.16 C309.060002,203.450001 309.306249,203.799998 309.46875,204.21 C309.631251,204.620002 309.7125,205.077497 309.7125,205.5825 C309.7125,206.082503 309.625001,206.539998 309.45,206.955 C309.274999,207.370002 309.018752,207.727498 308.68125,208.0275 C308.343748,208.327501 307.925003,208.561249 307.425,208.72875 C306.924998,208.896251 306.352503,208.98 305.7075,208.98 L303.9825,208.98 Z M303.9825,207.825 L305.7075,207.825 C306.122502,207.825 306.488748,207.770001 306.80625,207.66 C307.123752,207.549999 307.389999,207.396251 307.605,207.19875 C307.820001,207.001249 307.982499,206.765001 308.0925,206.49 C308.202501,206.214999 308.2575,205.912502 308.2575,205.5825 C308.2575,204.897497 308.046252,204.362502 307.62375,203.9775 C307.201248,203.592498 306.562504,203.4 305.7075,203.4 L303.9825,203.4 L303.9825,207.825 Z M313.6475,208.98 L313.6475,213 L312.2,213 L312.2,202.2525 L315.3725,202.2525 C316.052503,202.2525 316.643747,202.331249 317.14625,202.48875 C317.648753,202.646251 318.064998,202.869999 318.395,203.16 C318.725002,203.450001 318.971249,203.799998 319.13375,204.21 C319.296251,204.620002 319.3775,205.077497 319.3775,205.5825 C319.3775,206.082503 319.290001,206.539998 319.115,206.955 C318.939999,207.370002 318.683752,207.727498 318.34625,208.0275 C318.008748,208.327501 317.590003,208.561249 317.09,208.72875 C316.589998,208.896251 316.017503,208.98 315.3725,208.98 L313.6475,208.98 Z M313.6475,207.825 L315.3725,207.825 C315.787502,207.825 316.153748,207.770001 316.47125,207.66 C316.788752,207.549999 317.054999,207.396251 317.27,207.19875 C317.485001,207.001249 317.647499,206.765001 317.7575,206.49 C317.867501,206.214999 317.9225,205.912502 317.9225,205.5825 C317.9225,204.897497 317.711252,204.362502 317.28875,203.9775 C316.866248,203.592498 316.227504,203.4 315.3725,203.4 L313.6475,203.4 L313.6475,207.825 Z M327.22,203.9325 C327.175,204.0075 327.1275,204.06375 327.0775,204.10125 C327.0275,204.13875 326.9625,204.1575 326.8825,204.1575 C326.7975,204.1575 326.698751,204.115 326.58625,204.03 C326.473749,203.945 326.331251,203.851251 326.15875,203.74875 C325.986249,203.646249 325.778751,203.5525 325.53625,203.4675 C325.293749,203.3825 325.000002,203.34 324.655,203.34 C324.329998,203.34 324.042501,203.38375 323.7925,203.47125 C323.542499,203.55875 323.333751,203.677499 323.16625,203.8275 C322.998749,203.977501 322.8725,204.153749 322.7875,204.35625 C322.7025,204.558751 322.66,204.777499 322.66,205.0125 C322.66,205.312501 322.733749,205.561249 322.88125,205.75875 C323.028751,205.956251 323.223749,206.124999 323.46625,206.265 C323.708751,206.405001 323.983748,206.526249 324.29125,206.62875 C324.598752,206.731251 324.913748,206.837499 325.23625,206.9475 C325.558752,207.057501 325.873748,207.181249 326.18125,207.31875 C326.488752,207.456251 326.763749,207.629999 327.00625,207.84 C327.248751,208.050001 327.443749,208.307498 327.59125,208.6125 C327.738751,208.917502 327.8125,209.292498 327.8125,209.7375 C327.8125,210.207502 327.732501,210.648748 327.5725,211.06125 C327.412499,211.473752 327.178752,211.832498 326.87125,212.1375 C326.563748,212.442502 326.186252,212.682499 325.73875,212.8575 C325.291248,213.032501 324.782503,213.12 324.2125,213.12 C323.517497,213.12 322.883753,212.993751 322.31125,212.74125 C321.738747,212.488749 321.250002,212.147502 320.845,211.7175 L321.265,211.0275 C321.305,210.9725 321.35375,210.92625 321.41125,210.88875 C321.46875,210.85125 321.5325,210.8325 321.6025,210.8325 C321.707501,210.8325 321.827499,210.888749 321.9625,211.00125 C322.097501,211.113751 322.266249,211.237499 322.46875,211.3725 C322.671251,211.507501 322.916249,211.631249 323.20375,211.74375 C323.491251,211.856251 323.842498,211.9125 324.2575,211.9125 C324.602502,211.9125 324.909999,211.865 325.18,211.77 C325.450001,211.675 325.678749,211.541251 325.86625,211.36875 C326.053751,211.196249 326.1975,210.990001 326.2975,210.75 C326.397501,210.509999 326.4475,210.242501 326.4475,209.9475 C326.4475,209.622498 326.373751,209.356251 326.22625,209.14875 C326.078749,208.941249 325.885001,208.767501 325.645,208.6275 C325.404999,208.487499 325.131252,208.36875 324.82375,208.27125 C324.516248,208.17375 324.201252,208.073751 323.87875,207.97125 C323.556248,207.868749 323.241252,207.750001 322.93375,207.615 C322.626248,207.479999 322.352501,207.305001 322.1125,207.09 C321.872499,206.874999 321.678751,206.606252 321.53125,206.28375 C321.383749,205.961248 321.31,205.562502 321.31,205.0875 C321.31,204.707498 321.383749,204.340002 321.53125,203.985 C321.678751,203.629998 321.892499,203.315001 322.1725,203.04 C322.452501,202.764999 322.798748,202.545001 323.21125,202.38 C323.623752,202.214999 324.097497,202.1325 324.6325,202.1325 C325.232503,202.1325 325.779998,202.227499 326.275,202.4175 C326.770002,202.607501 327.202498,202.882498 327.5725,203.2425 L327.22,203.9325 Z" id="BUILD-MANAGEABLE-WOR" fill="#4A4A4A" sketch:type="MSShapeGroup"></path>
        </g>
    </g>
</svg>